<?xml version="1.0" encoding="utf-8"?>
<!-- Generator: Adobe Illustrator 24.0.1, SVG Export Plug-In . SVG Version: 6.00 Build 0)  -->
<svg version="1.1" id="Calque_1" xmlns="http://www.w3.org/2000/svg" xmlns:xlink="http://www.w3.org/1999/xlink" x="0px" y="0px"
	 viewBox="0 0 389.3 147" style="enable-background:new 0 0 389.3 147;" xml:space="preserve">
<style type="text/css">
	.st0{fill:#59539F;}
	.st1{fill:#58539E;}
	.st2{fill:#F39506;}
	.st3{fill:#4F4E50;}
</style>
<title>HESTIALABS_logo</title>
<path class="st0" d="M56.8,125.8"/>
<path class="st1" d="M56.8,118L56.8,118L56.8,118L56.8,118z"/>
<path class="st1" d="M126.8,38.2c-7.4,11.4-22.6,14.6-34,7.2c-1.1-0.7-2.2-1.6-3.2-2.5c0,0-0.2-0.2-0.5-0.4c-1.5-1.3-6.5-5-12.7-4
	c-2,0.3-3.9,0.8-6.8,1.8c-2,0.7-3,1.1-4.7,1.8c-7.8,3.3-7.4,9.8-8,12.3l0,0c-0.3,1.8-0.8,3.6-1.5,5.4c-0.4,1-0.8,1.9-1.3,2.8
	c-0.9,2.7-5.7,10.1-0.2,20.5c1.2,2.2,2.9,5.7,4.3,8.2c2.1,3.5,2.7,4.6,4.8,7.1c6.7,7.7,12.4,6.9,14.6,7.7c9.5,2.3,15.3,11.8,13,21.3
	s-11.8,15.3-21.3,13s-15.3-11.8-13-21.3c0.1-0.4,0.2-0.8,0.3-1.1l0,0c0,0,0,0,0-0.1c0,0,0,0,0-0.1v-0.1c0-0.1,0.1-0.2,0.1-0.4l0,0
	c0.5-1.9,1.6-7.6-1-14.5c-1-2.6-2-4.9-4.2-8.4c-1.1-1.8-2.4-3.8-4.6-7c-6.7-9.6-14.2-8.9-17-9.3c-3.9,0.2-8-0.4-11.9-1.9
	C3.6,70.6-3.8,54,1.9,39.2S24.2,17,39,22.7c3.3,1.3,6.2,3,8.6,5.2c0.2,0.1,0.3,0.3,0.5,0.5c0.1,0.1,0.2,0.2,0.4,0.3
	c0.2,0.2,0.3,0.3,0.5,0.5c2.5,2.3,6.9,5.9,13.6,4.4c1.8-0.4,2.9-0.7,4.9-1.2c2.9-0.8,4.7-1.6,6.5-2.4c5.7-2.7,7.7-9,8.2-10.9
	c0-0.1,0-0.1,0-0.2s0-0.2,0-0.2l0,0v-0.1c0.6-2.5,1.7-4.9,3.2-7.2C93,0,108.2-3.2,119.6,4.2C130.9,11.6,134.2,26.8,126.8,38.2z"/>
<ellipse class="st2" cx="80.8" cy="72" rx="14.1" ry="14"/>
<g>
	<path class="st3" d="M144.6,111.8H134V89.7h-20.7v22.1h-10.6V60.3h10.6v20.9H134V60.3h10.6V111.8z"/>
	<path class="st3" d="M170.1,112.5c-5.6,0-10.2-1.7-13.7-5.2c-3.5-3.4-5.3-8-5.3-13.8v-1c0-3.8,0.7-7.3,2.2-10.3
		c1.5-3,3.6-5.4,6.3-7c2.7-1.6,5.8-2.5,9.3-2.5c5.2,0,9.4,1.7,12.4,5c3,3.3,4.5,8,4.5,14.1V96h-24.4c0.3,2.5,1.3,4.5,3,6
		c1.7,1.5,3.8,2.3,6.3,2.3c3.9,0,7-1.4,9.2-4.3l5,5.6c-1.5,2.2-3.6,3.9-6.2,5.1C176.2,111.9,173.3,112.5,170.1,112.5z M168.9,81.1
		c-2,0-3.7,0.7-4.9,2.1c-1.3,1.4-2.1,3.3-2.4,5.9h14.2v-0.8c0-2.3-0.7-4-1.8-5.3C172.8,81.7,171.1,81.1,168.9,81.1z"/>
	<path class="st3" d="M211.7,101.2c0-1.2-0.6-2.2-1.9-3s-3.2-1.4-6-1.9c-9.1-1.9-13.7-5.8-13.7-11.6c0-3.4,1.4-6.2,4.2-8.5
		c2.8-2.3,6.5-3.4,11.1-3.4c4.9,0,8.7,1.1,11.7,3.4c2.9,2.3,4.4,5.3,4.4,8.9h-10.2c0-1.5-0.5-2.7-1.4-3.6c-0.9-1-2.4-1.4-4.4-1.4
		c-1.7,0-3.1,0.4-4,1.2c-0.9,0.8-1.4,1.8-1.4,3c0,1.1,0.5,2,1.6,2.7c1.1,0.7,2.9,1.3,5.4,1.8c2.5,0.5,4.7,1.1,6.4,1.7
		c5.4,2,8.1,5.4,8.1,10.3c0,3.5-1.5,6.3-4.5,8.5c-3,2.2-6.9,3.2-11.6,3.2c-3.2,0-6.1-0.6-8.5-1.7c-2.5-1.1-4.4-2.7-5.9-4.7
		c-1.4-2-2.1-4.1-2.1-6.5h9.7c0.1,1.8,0.8,3.2,2,4.2c1.3,1,2.9,1.5,5,1.5c2,0,3.4-0.4,4.4-1.1C211.2,103.4,211.7,102.5,211.7,101.2z
		"/>
	<path class="st3" d="M239.7,64.1v9.4h6.5V81h-6.5v19.1c0,1.4,0.3,2.4,0.8,3c0.5,0.6,1.6,0.9,3.1,0.9c1.1,0,2.1-0.1,3-0.2v7.8
		c-2,0.6-4.1,0.9-6.2,0.9c-7.2,0-10.8-3.6-11-10.9V81h-5.6v-7.5h5.6v-9.4H239.7z"/>
	<path class="st3" d="M251.2,63.6c0-1.5,0.5-2.8,1.5-3.8c1-1,2.4-1.5,4.2-1.5c1.7,0,3.1,0.5,4.2,1.5c1,1,1.6,2.3,1.6,3.8
		c0,1.6-0.5,2.8-1.6,3.8c-1.1,1-2.4,1.5-4.2,1.5s-3.1-0.5-4.2-1.5C251.7,66.5,251.2,65.2,251.2,63.6z M262,111.8h-10.3V73.5H262
		V111.8z"/>
	<path class="st3" d="M291.9,111.8c-0.5-0.9-0.8-2.1-1-3.4c-2.5,2.8-5.7,4.1-9.7,4.1c-3.8,0-6.9-1.1-9.3-3.3
		c-2.5-2.2-3.7-4.9-3.7-8.2c0-4.1,1.5-7.2,4.5-9.3c3-2.2,7.4-3.3,13-3.3h4.7v-2.2c0-1.8-0.5-3.2-1.4-4.2c-0.9-1.1-2.3-1.6-4.3-1.6
		c-1.7,0-3.1,0.4-4.1,1.2c-1,0.8-1.5,2-1.5,3.4h-10.2c0-2.2,0.7-4.3,2.1-6.2c1.4-1.9,3.3-3.4,5.8-4.4c2.5-1.1,5.3-1.6,8.4-1.6
		c4.7,0,8.5,1.2,11.2,3.6s4.2,5.7,4.2,10V103c0,3.6,0.5,6.4,1.5,8.2v0.6H291.9z M283.5,104.7c1.5,0,2.9-0.3,4.2-1
		c1.3-0.7,2.2-1.6,2.8-2.7v-6.6h-3.8c-5.1,0-7.8,1.8-8.2,5.3l0,0.6c0,1.3,0.4,2.3,1.3,3.1C280.7,104.3,281.9,104.7,283.5,104.7z"/>
	<path class="st3" d="M309.4,108.4c0-1.1,0.3-2.1,1-2.8s1.7-1.1,3-1.1s2.4,0.4,3.1,1.1c0.7,0.8,1,1.7,1,2.8c0,1.1-0.3,2-1,2.7
		c-0.7,0.7-1.7,1.1-3.1,1.1s-2.4-0.4-3-1.1S309.4,109.5,309.4,108.4z"/>
	<path class="st3" d="M348.4,111.8c-0.4-0.8-0.7-2.1-0.9-4c-3,3.2-6.7,4.7-10.9,4.7c-3.8,0-6.9-1.1-9.3-3.2
		c-2.4-2.1-3.6-4.8-3.6-8.1c0-4,1.5-7.1,4.5-9.3c3-2.2,7.3-3.3,12.8-3.3h6.4v-3c0-2.3-0.7-4.1-2.1-5.5c-1.4-1.4-3.4-2-6.1-2
		c-2.3,0-4.3,0.6-5.9,1.8c-1.6,1.2-2.4,2.6-2.4,4.3h-6.6c0-1.9,0.7-3.8,2-5.5c1.4-1.8,3.2-3.2,5.5-4.2c2.3-1,4.9-1.6,7.7-1.6
		c4.4,0,7.9,1.1,10.4,3.3c2.5,2.2,3.8,5.2,3.9,9.1v17.6c0,3.5,0.4,6.3,1.3,8.4v0.6H348.4z M337.5,106.8c2.1,0,4-0.5,5.8-1.6
		c1.8-1.1,3.2-2.4,4-4.1v-7.9h-5.1c-8,0-12,2.3-12,7c0,2.1,0.7,3.7,2.1,4.8C333.6,106.3,335.3,106.8,337.5,106.8z"/>
	<path class="st3" d="M360.6,63.4c0-1.1,0.3-2,1-2.7c0.6-0.7,1.6-1.1,2.9-1.1s2.2,0.4,2.9,1.1c0.7,0.7,1,1.6,1,2.7
		c0,1.1-0.3,1.9-1,2.7c-0.7,0.7-1.6,1.1-2.9,1.1s-2.2-0.4-2.9-1.1C360.9,65.3,360.6,64.4,360.6,63.4z M367.6,111.8h-6.5V73.5h6.5
		V111.8z"/>
</g>
<g>
	<path class="st3" d="M110.9,136.7c0-0.6-0.2-1.1-0.7-1.4c-0.5-0.3-1.2-0.6-2.4-0.9c-1.1-0.2-2-0.5-2.7-0.9
		c-0.7-0.3-1.2-0.7-1.5-1.2c-0.3-0.5-0.5-1-0.5-1.6c0-1.1,0.5-2,1.4-2.7c0.9-0.7,2.1-1.1,3.5-1.1c1.5,0,2.7,0.4,3.6,1.1
		c0.9,0.8,1.4,1.7,1.4,2.9h-2.2c0-0.6-0.3-1.1-0.8-1.6c-0.5-0.4-1.2-0.7-2-0.7c-0.8,0-1.4,0.2-1.9,0.5c-0.5,0.4-0.7,0.8-0.7,1.4
		c0,0.5,0.2,0.9,0.6,1.2c0.4,0.3,1.2,0.5,2.3,0.8c1.1,0.2,2,0.5,2.7,0.9c0.7,0.3,1.2,0.8,1.5,1.2c0.3,0.5,0.5,1.1,0.5,1.8
		c0,1.2-0.5,2.1-1.4,2.8c-0.9,0.7-2.1,1-3.6,1c-1,0-2-0.2-2.8-0.5s-1.4-0.9-1.9-1.5c-0.5-0.7-0.7-1.4-0.7-2.1h2.2
		c0,0.7,0.3,1.3,0.9,1.8c0.6,0.4,1.3,0.7,2.2,0.7c0.8,0,1.5-0.2,2-0.5S110.9,137.2,110.9,136.7z"/>
	<path class="st3" d="M123.3,138.8c-0.9,1-2.1,1.5-3.8,1.5c-1.4,0-2.5-0.4-3.2-1.2c-0.7-0.8-1.1-2-1.1-3.6v-8.4h2.2v8.3
		c0,2,0.8,2.9,2.4,2.9c1.7,0,2.8-0.6,3.4-1.9v-9.4h2.2v12.9h-2.1L123.3,138.8z"/>
	<path class="st3" d="M135.8,136.7c0-0.6-0.2-1.1-0.7-1.4c-0.5-0.3-1.2-0.6-2.4-0.9c-1.1-0.2-2-0.5-2.7-0.9
		c-0.7-0.3-1.2-0.7-1.5-1.2c-0.3-0.5-0.5-1-0.5-1.6c0-1.1,0.5-2,1.4-2.7c0.9-0.7,2.1-1.1,3.5-1.1c1.5,0,2.7,0.4,3.6,1.1
		c0.9,0.8,1.4,1.7,1.4,2.9h-2.2c0-0.6-0.3-1.1-0.8-1.6c-0.5-0.4-1.2-0.7-2-0.7c-0.8,0-1.4,0.2-1.9,0.5c-0.5,0.4-0.7,0.8-0.7,1.4
		c0,0.5,0.2,0.9,0.6,1.2c0.4,0.3,1.2,0.5,2.3,0.8c1.1,0.2,2,0.5,2.7,0.9c0.7,0.3,1.2,0.8,1.5,1.2c0.3,0.5,0.5,1.1,0.5,1.8
		c0,1.2-0.5,2.1-1.4,2.8c-0.9,0.7-2.1,1-3.6,1c-1,0-2-0.2-2.8-0.5s-1.4-0.9-1.9-1.5c-0.5-0.7-0.7-1.4-0.7-2.1h2.2
		c0,0.7,0.3,1.3,0.9,1.8c0.6,0.4,1.3,0.7,2.2,0.7c0.8,0,1.5-0.2,2-0.5S135.8,137.2,135.8,136.7z"/>
	<path class="st3" d="M143.2,124v3.1h2.4v1.7h-2.4v8c0,0.5,0.1,0.9,0.3,1.2c0.2,0.3,0.6,0.4,1.1,0.4c0.3,0,0.6,0,1.1-0.1v1.8
		c-0.6,0.2-1.2,0.2-1.7,0.2c-1,0-1.7-0.3-2.3-0.9c-0.5-0.6-0.8-1.4-0.8-2.5v-8h-2.4v-1.7h2.4V124H143.2z"/>
	<path class="st3" d="M155.5,140.1c-0.1-0.3-0.2-0.7-0.3-1.4c-1,1.1-2.3,1.6-3.7,1.6c-1.3,0-2.3-0.4-3.2-1.1
		c-0.8-0.7-1.2-1.6-1.2-2.7c0-1.3,0.5-2.4,1.5-3.1c1-0.7,2.5-1.1,4.4-1.1h2.2v-1c0-0.8-0.2-1.4-0.7-1.8s-1.2-0.7-2.1-0.7
		c-0.8,0-1.5,0.2-2,0.6c-0.5,0.4-0.8,0.9-0.8,1.4h-2.2c0-0.6,0.2-1.3,0.7-1.9c0.5-0.6,1.1-1.1,1.9-1.4c0.8-0.4,1.7-0.5,2.6-0.5
		c1.5,0,2.7,0.4,3.5,1.1c0.9,0.7,1.3,1.8,1.3,3.1v5.9c0,1.2,0.2,2.1,0.5,2.8v0.2H155.5z M151.8,138.4c0.7,0,1.4-0.2,2-0.5
		c0.6-0.4,1.1-0.8,1.4-1.4v-2.7h-1.7c-2.7,0-4.1,0.8-4.1,2.4c0,0.7,0.2,1.2,0.7,1.6C150.5,138.2,151.1,138.4,151.8,138.4z"/>
	<path class="st3" d="M160.2,123.7c0-0.4,0.1-0.7,0.3-0.9s0.5-0.4,1-0.4c0.4,0,0.8,0.1,1,0.4s0.3,0.5,0.3,0.9s-0.1,0.7-0.3,0.9
		s-0.6,0.4-1,0.4c-0.4,0-0.8-0.1-1-0.4S160.2,124.1,160.2,123.7z M162.6,140.1h-2.2v-12.9h2.2V140.1z"/>
	<path class="st3" d="M167.5,127.2l0.1,1.6c1-1.2,2.3-1.9,3.9-1.9c2.8,0,4.1,1.5,4.2,4.6v8.5h-2.2v-8.6c0-0.9-0.2-1.6-0.6-2.1
		c-0.4-0.4-1.1-0.7-2-0.7c-0.7,0-1.4,0.2-1.9,0.6c-0.5,0.4-1,0.9-1.3,1.5v9.2h-2.2v-12.9H167.5z"/>
	<path class="st3" d="M186.4,140.1c-0.1-0.3-0.2-0.7-0.3-1.4c-1,1.1-2.3,1.6-3.7,1.6c-1.3,0-2.3-0.4-3.2-1.1
		c-0.8-0.7-1.2-1.6-1.2-2.7c0-1.3,0.5-2.4,1.5-3.1c1-0.7,2.5-1.1,4.4-1.1h2.2v-1c0-0.8-0.2-1.4-0.7-1.8s-1.2-0.7-2.1-0.7
		c-0.8,0-1.5,0.2-2,0.6c-0.5,0.4-0.8,0.9-0.8,1.4h-2.2c0-0.6,0.2-1.3,0.7-1.9c0.5-0.6,1.1-1.1,1.9-1.4c0.8-0.4,1.7-0.5,2.6-0.5
		c1.5,0,2.7,0.4,3.5,1.1c0.9,0.7,1.3,1.8,1.3,3.1v5.9c0,1.2,0.2,2.1,0.5,2.8v0.2H186.4z M182.7,138.4c0.7,0,1.4-0.2,2-0.5
		c0.6-0.4,1.1-0.8,1.4-1.4v-2.7h-1.7c-2.7,0-4.1,0.8-4.1,2.4c0,0.7,0.2,1.2,0.7,1.6C181.3,138.2,181.9,138.4,182.7,138.4z"/>
	<path class="st3" d="M202.1,133.8c0,2-0.5,3.6-1.4,4.8s-2.1,1.8-3.7,1.8c-1.6,0-2.9-0.6-3.8-1.7l-0.1,1.5H191v-18.3h2.2v6.8
		c0.9-1.1,2.1-1.7,3.7-1.7c1.6,0,2.8,0.6,3.7,1.8c0.9,1.2,1.4,2.8,1.4,4.9V133.8z M199.8,133.5c0-1.5-0.3-2.7-0.9-3.5
		c-0.6-0.8-1.4-1.2-2.5-1.2c-1.5,0-2.5,0.7-3.2,2v5.6c0.7,1.4,1.7,2,3.2,2c1.1,0,1.9-0.4,2.5-1.2
		C199.5,136.4,199.8,135.2,199.8,133.5z"/>
	<path class="st3" d="M206.6,140.1h-2.2v-18.3h2.2V140.1z"/>
	<path class="st3" d="M214.8,140.3c-1.8,0-3.2-0.6-4.3-1.7c-1.1-1.2-1.7-2.7-1.7-4.6v-0.4c0-1.3,0.2-2.4,0.7-3.4
		c0.5-1,1.2-1.8,2.1-2.4c0.9-0.6,1.9-0.9,2.9-0.9c1.7,0,3,0.6,4,1.7c0.9,1.1,1.4,2.7,1.4,4.8v0.9h-8.8c0,1.3,0.4,2.3,1.1,3.1
		s1.6,1.2,2.7,1.2c0.8,0,1.5-0.2,2-0.5c0.5-0.3,1-0.7,1.4-1.3l1.4,1.1C218.6,139.5,217,140.3,214.8,140.3z M214.5,128.8
		c-0.9,0-1.7,0.3-2.3,1c-0.6,0.6-1,1.6-1.1,2.7h6.5v-0.2c-0.1-1.1-0.4-2-0.9-2.6C216.2,129.1,215.5,128.8,214.5,128.8z"/>
	<path class="st3" d="M226.6,133.5c0-2,0.5-3.6,1.4-4.8c0.9-1.2,2.2-1.8,3.7-1.8c1.5,0,2.7,0.5,3.6,1.6v-6.7h2.2v18.3h-2.1l-0.1-1.4
		c-0.9,1.1-2.1,1.6-3.7,1.6c-1.5,0-2.7-0.6-3.7-1.8s-1.4-2.8-1.4-4.8V133.5z M228.8,133.8c0,1.5,0.3,2.6,0.9,3.4s1.5,1.2,2.5,1.2
		c1.4,0,2.4-0.6,3.1-1.9v-5.9c-0.7-1.2-1.7-1.8-3.1-1.8c-1.1,0-1.9,0.4-2.6,1.3S228.8,132.1,228.8,133.8z"/>
	<path class="st3" d="M248.4,140.1c-0.1-0.3-0.2-0.7-0.3-1.4c-1,1.1-2.3,1.6-3.7,1.6c-1.3,0-2.3-0.4-3.2-1.1s-1.2-1.6-1.2-2.7
		c0-1.3,0.5-2.4,1.5-3.1c1-0.7,2.5-1.1,4.4-1.1h2.2v-1c0-0.8-0.2-1.4-0.7-1.8c-0.5-0.5-1.2-0.7-2.1-0.7c-0.8,0-1.5,0.2-2,0.6
		c-0.5,0.4-0.8,0.9-0.8,1.4h-2.2c0-0.6,0.2-1.3,0.7-1.9c0.5-0.6,1.1-1.1,1.9-1.4c0.8-0.4,1.7-0.5,2.6-0.5c1.5,0,2.7,0.4,3.5,1.1
		c0.9,0.7,1.3,1.8,1.3,3.1v5.9c0,1.2,0.2,2.1,0.5,2.8v0.2H248.4z M244.7,138.4c0.7,0,1.4-0.2,2-0.5s1.1-0.8,1.4-1.4v-2.7h-1.7
		c-2.7,0-4.1,0.8-4.1,2.4c0,0.7,0.2,1.2,0.7,1.6C243.3,138.2,243.9,138.4,244.7,138.4z"/>
	<path class="st3" d="M256,124v3.1h2.4v1.7H256v8c0,0.5,0.1,0.9,0.3,1.2c0.2,0.3,0.6,0.4,1.1,0.4c0.3,0,0.6,0,1.1-0.1v1.8
		c-0.6,0.2-1.2,0.2-1.7,0.2c-1,0-1.7-0.3-2.3-0.9c-0.5-0.6-0.8-1.4-0.8-2.5v-8h-2.4v-1.7h2.4V124H256z"/>
	<path class="st3" d="M268.4,140.1c-0.1-0.3-0.2-0.7-0.3-1.4c-1,1.1-2.3,1.6-3.7,1.6c-1.3,0-2.3-0.4-3.2-1.1s-1.2-1.6-1.2-2.7
		c0-1.3,0.5-2.4,1.5-3.1c1-0.7,2.5-1.1,4.4-1.1h2.2v-1c0-0.8-0.2-1.4-0.7-1.8c-0.5-0.5-1.2-0.7-2.1-0.7c-0.8,0-1.5,0.2-2,0.6
		c-0.5,0.4-0.8,0.9-0.8,1.4h-2.2c0-0.6,0.2-1.3,0.7-1.9c0.5-0.6,1.1-1.1,1.9-1.4c0.8-0.4,1.7-0.5,2.6-0.5c1.5,0,2.7,0.4,3.5,1.1
		c0.9,0.7,1.3,1.8,1.3,3.1v5.9c0,1.2,0.2,2.1,0.5,2.8v0.2H268.4z M264.7,138.4c0.7,0,1.4-0.2,2-0.5s1.1-0.8,1.4-1.4v-2.7h-1.7
		c-2.7,0-4.1,0.8-4.1,2.4c0,0.7,0.2,1.2,0.7,1.6C263.3,138.2,263.9,138.4,264.7,138.4z"/>
	<path class="st3" d="M286,136.7c0-0.6-0.2-1.1-0.7-1.4c-0.5-0.3-1.2-0.6-2.4-0.9c-1.1-0.2-2-0.5-2.7-0.9c-0.7-0.3-1.2-0.7-1.5-1.2
		c-0.3-0.5-0.5-1-0.5-1.6c0-1.1,0.5-2,1.4-2.7c0.9-0.7,2.1-1.1,3.5-1.1c1.5,0,2.7,0.4,3.6,1.1c0.9,0.8,1.4,1.7,1.4,2.9h-2.2
		c0-0.6-0.3-1.1-0.8-1.6c-0.5-0.4-1.2-0.7-2-0.7c-0.8,0-1.4,0.2-1.9,0.5c-0.5,0.4-0.7,0.8-0.7,1.4c0,0.5,0.2,0.9,0.6,1.2
		c0.4,0.3,1.2,0.5,2.3,0.8c1.1,0.2,2,0.5,2.7,0.9c0.7,0.3,1.2,0.8,1.5,1.2c0.3,0.5,0.5,1.1,0.5,1.8c0,1.2-0.5,2.1-1.4,2.8
		c-0.9,0.7-2.1,1-3.6,1c-1,0-2-0.2-2.8-0.5s-1.4-0.9-1.9-1.5c-0.5-0.7-0.7-1.4-0.7-2.1h2.2c0,0.7,0.3,1.3,0.9,1.8
		c0.6,0.4,1.3,0.7,2.2,0.7c0.8,0,1.5-0.2,2-0.5S286,137.2,286,136.7z"/>
	<path class="st3" d="M289.8,133.5c0-1.3,0.3-2.4,0.8-3.4c0.5-1,1.2-1.8,2.1-2.3c0.9-0.5,1.9-0.8,3.1-0.8c1.8,0,3.2,0.6,4.3,1.8
		c1.1,1.2,1.6,2.8,1.6,4.9v0.2c0,1.3-0.2,2.4-0.7,3.4c-0.5,1-1.2,1.8-2.1,2.3c-0.9,0.6-1.9,0.8-3.1,0.8c-1.8,0-3.2-0.6-4.3-1.8
		c-1.1-1.2-1.6-2.8-1.6-4.8V133.5z M292,133.8c0,1.4,0.3,2.6,1,3.5c0.7,0.9,1.6,1.3,2.7,1.3c1.1,0,2-0.4,2.7-1.3
		c0.7-0.9,1-2.1,1-3.7c0-1.4-0.3-2.6-1-3.4s-1.6-1.3-2.7-1.3c-1.1,0-2,0.4-2.7,1.3C292.4,130.9,292,132.2,292,133.8z"/>
	<path class="st3" d="M306.2,140.1h-2.2v-18.3h2.2V140.1z"/>
	<path class="st3" d="M317,138.8c-0.9,1-2.1,1.5-3.8,1.5c-1.4,0-2.5-0.4-3.2-1.2c-0.7-0.8-1.1-2-1.1-3.6v-8.4h2.2v8.3
		c0,2,0.8,2.9,2.4,2.9c1.7,0,2.8-0.6,3.4-1.9v-9.4h2.2v12.9h-2.1L317,138.8z"/>
	<path class="st3" d="M324.9,124v3.1h2.4v1.7h-2.4v8c0,0.5,0.1,0.9,0.3,1.2c0.2,0.3,0.6,0.4,1.1,0.4c0.3,0,0.6,0,1.1-0.1v1.8
		c-0.6,0.2-1.2,0.2-1.7,0.2c-1,0-1.7-0.3-2.3-0.9c-0.5-0.6-0.8-1.4-0.8-2.5v-8h-2.4v-1.7h2.4V124H324.9z"/>
	<path class="st3" d="M329.2,123.7c0-0.4,0.1-0.7,0.3-0.9c0.2-0.2,0.5-0.4,1-0.4c0.4,0,0.8,0.1,1,0.4c0.2,0.2,0.3,0.5,0.3,0.9
		s-0.1,0.7-0.3,0.9c-0.2,0.2-0.6,0.4-1,0.4c-0.4,0-0.8-0.1-1-0.4C329.3,124.4,329.2,124.1,329.2,123.7z M331.6,140.1h-2.2v-12.9h2.2
		V140.1z"/>
	<path class="st3" d="M333.9,133.5c0-1.3,0.3-2.4,0.8-3.4c0.5-1,1.2-1.8,2.1-2.3c0.9-0.5,1.9-0.8,3.1-0.8c1.8,0,3.2,0.6,4.3,1.8
		c1.1,1.2,1.6,2.8,1.6,4.9v0.2c0,1.3-0.2,2.4-0.7,3.4c-0.5,1-1.2,1.8-2.1,2.3c-0.9,0.6-1.9,0.8-3.1,0.8c-1.8,0-3.2-0.6-4.3-1.8
		c-1.1-1.2-1.6-2.8-1.6-4.8V133.5z M336.1,133.8c0,1.4,0.3,2.6,1,3.5c0.7,0.9,1.6,1.3,2.7,1.3c1.1,0,2-0.4,2.7-1.3
		c0.7-0.9,1-2.1,1-3.7c0-1.4-0.3-2.6-1-3.4s-1.6-1.3-2.7-1.3c-1.1,0-2,0.4-2.7,1.3C336.4,130.9,336.1,132.2,336.1,133.8z"/>
	<path class="st3" d="M349.9,127.2l0.1,1.6c1-1.2,2.3-1.9,3.9-1.9c2.8,0,4.1,1.5,4.2,4.6v8.5h-2.2v-8.6c0-0.9-0.2-1.6-0.6-2.1
		c-0.4-0.4-1.1-0.7-2-0.7c-0.7,0-1.4,0.2-1.9,0.6c-0.5,0.4-1,0.9-1.3,1.5v9.2h-2.2v-12.9H349.9z"/>
	<path class="st3" d="M368.3,136.7c0-0.6-0.2-1.1-0.7-1.4c-0.5-0.3-1.2-0.6-2.4-0.9c-1.1-0.2-2-0.5-2.7-0.9
		c-0.7-0.3-1.2-0.7-1.5-1.2c-0.3-0.5-0.5-1-0.5-1.6c0-1.1,0.5-2,1.4-2.7c0.9-0.7,2.1-1.1,3.5-1.1c1.5,0,2.7,0.4,3.6,1.1
		c0.9,0.8,1.4,1.7,1.4,2.9h-2.2c0-0.6-0.3-1.1-0.8-1.6c-0.5-0.4-1.2-0.7-2-0.7c-0.8,0-1.4,0.2-1.9,0.5c-0.5,0.4-0.7,0.8-0.7,1.4
		c0,0.5,0.2,0.9,0.6,1.2c0.4,0.3,1.2,0.5,2.3,0.8c1.1,0.2,2,0.5,2.7,0.9c0.7,0.3,1.2,0.8,1.5,1.2c0.3,0.5,0.5,1.1,0.5,1.8
		c0,1.2-0.5,2.1-1.4,2.8c-0.9,0.7-2.1,1-3.6,1c-1,0-2-0.2-2.8-0.5s-1.4-0.9-1.9-1.5c-0.5-0.7-0.7-1.4-0.7-2.1h2.2
		c0,0.7,0.3,1.3,0.9,1.8c0.6,0.4,1.3,0.7,2.2,0.7c0.8,0,1.5-0.2,2-0.5S368.3,137.2,368.3,136.7z"/>
</g>
</svg>
