<?xml version="1.0" encoding="UTF-8" standalone="no"?>
<!DOCTYPE svg PUBLIC "-//W3C//DTD SVG 1.1//EN" "http://www.w3.org/Graphics/SVG/1.1/DTD/svg11.dtd">
<!-- Dating Privacy logo (web) -->
<svg role="img" aria-label="‹Dating Privacy› logo"
    width="100%" height="100%" viewBox="0 0 1170 441"
    version="1.1" xmlns="http://www.w3.org/2000/svg"
    xmlns:serif="http://www.serif.com/"
    xmlns:xlink="http://www.w3.org/1999/xlink" xml:space="preserve">
    <g id="dating-privacy-logo" serif:id="‹Dating Privacy› logo" transform="matrix(1,0,0,1,-324.692,-593.654)">
        <g id="pr·vacy" transform="matrix(0.904864,0,0,0.502086,72.1861,279.385)">
            <g transform="matrix(212.187,0,0,382.405,448.802,1347.66)">
                <path d="M0.345,-0.551C0.414,-0.551 0.464,-0.527 0.494,-0.478C0.525,-0.429 0.54,-0.36 0.54,-0.27C0.54,-0.215 0.532,-0.166 0.517,-0.123C0.502,-0.081 0.478,-0.048 0.447,-0.024C0.416,-0 0.377,0.012 0.332,0.012C0.272,0.012 0.225,-0.009 0.189,-0.051L0.189,0.207L0.103,0.217L0.103,-0.54L0.176,-0.54L0.184,-0.465C0.203,-0.493 0.227,-0.514 0.255,-0.529C0.282,-0.544 0.312,-0.551 0.345,-0.551ZM0.324,-0.482C0.296,-0.482 0.271,-0.474 0.248,-0.457C0.226,-0.441 0.206,-0.42 0.189,-0.395L0.189,-0.128C0.204,-0.106 0.221,-0.09 0.243,-0.078C0.264,-0.066 0.288,-0.06 0.313,-0.06C0.358,-0.06 0.392,-0.077 0.414,-0.112C0.436,-0.146 0.448,-0.199 0.448,-0.271C0.448,-0.342 0.438,-0.395 0.417,-0.43C0.397,-0.465 0.366,-0.482 0.324,-0.482Z" style="fill:rgb(101,4,25);fill-rule:nonzero;stroke:rgb(101,4,25);stroke-width:0.01px;"/>
            </g>
            <g transform="matrix(212.187,0,0,382.405,581.5,1347.66)">
                <path d="M0.468,-0.552C0.482,-0.552 0.495,-0.551 0.506,-0.549C0.518,-0.547 0.53,-0.544 0.544,-0.54L0.532,-0.357L0.461,-0.357L0.461,-0.472L0.456,-0.472C0.415,-0.472 0.379,-0.458 0.35,-0.428C0.32,-0.399 0.297,-0.354 0.278,-0.295L0.278,-0.066L0.388,-0.066L0.388,-0L0.108,-0L0.108,-0.066L0.192,-0.066L0.192,-0.474L0.108,-0.474L0.108,-0.54L0.258,-0.54L0.274,-0.412C0.296,-0.459 0.322,-0.494 0.352,-0.517C0.382,-0.54 0.421,-0.552 0.468,-0.552Z" style="fill:rgb(101,4,25);fill-rule:nonzero;stroke:rgb(101,4,25);stroke-width:0.01px;"/>
            </g>
            <g transform="matrix(212.187,0,0,382.405,846.897,1347.66)">
                <path d="M0.464,-0.54L0.553,-0.54L0.357,-0L0.257,-0L0.062,-0.54L0.153,-0.54L0.31,-0.078L0.464,-0.54Z" style="fill:rgb(101,4,25);fill-rule:nonzero;stroke:rgb(101,4,25);stroke-width:0.01px;"/>
            </g>
            <g transform="matrix(212.187,0,0,382.405,979.595,1347.66)">
                <path d="M0.49,-0.118C0.49,-0.097 0.493,-0.081 0.5,-0.071C0.507,-0.061 0.518,-0.054 0.534,-0.049L0.513,0.012C0.461,0.005 0.428,-0.02 0.414,-0.064C0.395,-0.039 0.371,-0.02 0.341,-0.007C0.312,0.005 0.28,0.012 0.245,0.012C0.209,0.012 0.178,0.005 0.152,-0.009C0.125,-0.022 0.105,-0.042 0.091,-0.067C0.077,-0.092 0.07,-0.121 0.07,-0.155C0.07,-0.211 0.092,-0.253 0.135,-0.283C0.179,-0.313 0.242,-0.328 0.324,-0.328L0.403,-0.328L0.403,-0.373C0.403,-0.41 0.392,-0.438 0.37,-0.455C0.348,-0.472 0.316,-0.48 0.274,-0.48C0.234,-0.48 0.187,-0.471 0.134,-0.452L0.111,-0.517C0.171,-0.54 0.23,-0.551 0.288,-0.551C0.354,-0.551 0.404,-0.536 0.438,-0.505C0.473,-0.474 0.49,-0.431 0.49,-0.377L0.49,-0.118ZM0.267,-0.054C0.293,-0.054 0.319,-0.061 0.343,-0.074C0.367,-0.088 0.387,-0.106 0.403,-0.13L0.403,-0.269L0.325,-0.269C0.268,-0.269 0.227,-0.259 0.201,-0.24C0.175,-0.221 0.163,-0.192 0.163,-0.156C0.163,-0.088 0.197,-0.054 0.267,-0.054Z" style="fill:rgb(101,4,25);fill-rule:nonzero;stroke:rgb(101,4,25);stroke-width:0.01px;"/>
            </g>
            <g transform="matrix(212.187,0,0,382.405,1112.29,1347.66)">
                <path d="M0.347,-0.063C0.395,-0.063 0.442,-0.078 0.488,-0.11L0.53,-0.053C0.506,-0.034 0.478,-0.018 0.445,-0.006C0.411,0.006 0.379,0.012 0.347,0.012C0.294,0.012 0.249,0 0.211,-0.023C0.172,-0.045 0.143,-0.078 0.124,-0.12C0.104,-0.162 0.094,-0.211 0.094,-0.268C0.094,-0.322 0.104,-0.371 0.124,-0.414C0.144,-0.456 0.174,-0.49 0.212,-0.515C0.25,-0.539 0.296,-0.551 0.348,-0.551C0.417,-0.551 0.477,-0.53 0.529,-0.489L0.487,-0.431C0.44,-0.463 0.394,-0.479 0.347,-0.479C0.315,-0.479 0.288,-0.472 0.264,-0.456C0.24,-0.44 0.221,-0.416 0.207,-0.385C0.194,-0.353 0.187,-0.314 0.187,-0.268C0.187,-0.199 0.202,-0.147 0.231,-0.113C0.259,-0.079 0.298,-0.063 0.347,-0.063Z" style="fill:rgb(101,4,25);fill-rule:nonzero;stroke:rgb(101,4,25);stroke-width:0.01px;"/>
            </g>
            <g transform="matrix(212.187,0,0,382.405,1244.99,1347.66)">
                <path d="M0.363,0.004C0.349,0.044 0.332,0.079 0.313,0.108C0.293,0.138 0.268,0.162 0.237,0.181C0.205,0.201 0.167,0.212 0.122,0.217L0.108,0.148C0.144,0.142 0.173,0.133 0.195,0.121C0.217,0.108 0.234,0.093 0.246,0.074C0.258,0.055 0.27,0.03 0.281,-0L0.252,-0L0.063,-0.54L0.155,-0.54L0.31,-0.066L0.463,-0.54L0.552,-0.54L0.363,0.004Z" style="fill:rgb(101,4,25);fill-rule:nonzero;stroke:rgb(101,4,25);stroke-width:0.01px;"/>
            </g>
        </g>
        <g id="dat·ng" transform="matrix(0.904864,0,0,0.502086,65.1861,101.385)">
            <g transform="matrix(212.187,0,0,382.405,316.103,1347.66)">
                <path d="M0.426,-0.768L0.512,-0.757L0.512,-0L0.437,-0L0.429,-0.071C0.409,-0.043 0.386,-0.022 0.36,-0.009C0.334,0.005 0.306,0.012 0.275,0.012C0.207,0.012 0.156,-0.013 0.121,-0.064C0.087,-0.114 0.07,-0.182 0.07,-0.269C0.07,-0.324 0.078,-0.372 0.095,-0.415C0.112,-0.458 0.136,-0.491 0.168,-0.515C0.2,-0.539 0.238,-0.551 0.282,-0.551C0.312,-0.551 0.34,-0.546 0.363,-0.535C0.387,-0.525 0.408,-0.509 0.426,-0.488L0.426,-0.768ZM0.304,-0.482C0.259,-0.482 0.224,-0.464 0.2,-0.428C0.176,-0.393 0.164,-0.34 0.164,-0.269C0.164,-0.199 0.175,-0.147 0.197,-0.111C0.219,-0.076 0.251,-0.058 0.293,-0.058C0.344,-0.058 0.389,-0.086 0.426,-0.143L0.426,-0.413C0.411,-0.435 0.394,-0.452 0.373,-0.464C0.352,-0.476 0.329,-0.482 0.304,-0.482Z" style="fill-rule:nonzero;stroke:black;stroke-width:0.01px;"/>
            </g>
            <g transform="matrix(212.187,0,0,382.405,448.802,1347.66)">
                <path d="M0.49,-0.118C0.49,-0.097 0.493,-0.081 0.5,-0.071C0.507,-0.061 0.518,-0.054 0.534,-0.049L0.513,0.012C0.461,0.005 0.428,-0.02 0.414,-0.064C0.395,-0.039 0.371,-0.02 0.341,-0.007C0.312,0.005 0.28,0.012 0.245,0.012C0.209,0.012 0.178,0.005 0.152,-0.009C0.125,-0.022 0.105,-0.042 0.091,-0.067C0.077,-0.092 0.07,-0.121 0.07,-0.155C0.07,-0.211 0.092,-0.253 0.135,-0.283C0.179,-0.313 0.242,-0.328 0.324,-0.328L0.403,-0.328L0.403,-0.373C0.403,-0.41 0.392,-0.438 0.37,-0.455C0.348,-0.472 0.316,-0.48 0.274,-0.48C0.234,-0.48 0.187,-0.471 0.134,-0.452L0.111,-0.517C0.171,-0.54 0.23,-0.551 0.288,-0.551C0.354,-0.551 0.404,-0.536 0.438,-0.505C0.473,-0.474 0.49,-0.431 0.49,-0.377L0.49,-0.118ZM0.267,-0.054C0.293,-0.054 0.319,-0.061 0.343,-0.074C0.367,-0.088 0.387,-0.106 0.403,-0.13L0.403,-0.269L0.325,-0.269C0.268,-0.269 0.227,-0.259 0.201,-0.24C0.175,-0.221 0.163,-0.192 0.163,-0.156C0.163,-0.088 0.197,-0.054 0.267,-0.054Z" style="fill-rule:nonzero;stroke:black;stroke-width:0.01px;"/>
            </g>
            <g transform="matrix(212.187,0,0,382.405,581.5,1347.66)">
                <path d="M0.532,-0.027C0.514,-0.015 0.491,-0.006 0.465,0.001C0.438,0.008 0.412,0.012 0.387,0.012C0.349,0.012 0.317,0.005 0.289,-0.009C0.262,-0.023 0.242,-0.042 0.227,-0.067C0.213,-0.091 0.206,-0.119 0.206,-0.151L0.206,-0.473L0.082,-0.473L0.082,-0.54L0.206,-0.54L0.206,-0.663L0.292,-0.673L0.292,-0.54L0.478,-0.54L0.468,-0.473L0.292,-0.473L0.292,-0.152C0.292,-0.122 0.3,-0.098 0.316,-0.083C0.332,-0.068 0.359,-0.06 0.395,-0.06C0.431,-0.06 0.466,-0.069 0.498,-0.086L0.532,-0.027Z" style="fill-rule:nonzero;stroke:black;stroke-width:0.01px;"/>
            </g>
            <g transform="matrix(212.187,0,0,382.405,846.897,1347.66)">
                <path d="M0.103,-0L0.103,-0.54L0.176,-0.54L0.183,-0.465C0.205,-0.492 0.232,-0.513 0.264,-0.528C0.297,-0.544 0.329,-0.551 0.362,-0.551C0.413,-0.551 0.451,-0.538 0.476,-0.51C0.501,-0.483 0.513,-0.444 0.513,-0.392L0.513,-0L0.427,-0L0.427,-0.329C0.427,-0.369 0.425,-0.4 0.421,-0.421C0.416,-0.442 0.408,-0.458 0.395,-0.468C0.381,-0.478 0.362,-0.484 0.335,-0.484C0.306,-0.484 0.278,-0.475 0.253,-0.457C0.227,-0.439 0.206,-0.418 0.189,-0.393L0.189,-0L0.103,-0Z" style="fill-rule:nonzero;stroke:black;stroke-width:0.01px;"/>
            </g>
            <g transform="matrix(212.187,0,0,382.405,979.595,1347.66)">
                <path d="M0.569,-0.516C0.548,-0.51 0.525,-0.506 0.501,-0.504C0.477,-0.502 0.447,-0.501 0.411,-0.501C0.473,-0.472 0.505,-0.426 0.505,-0.365C0.505,-0.329 0.496,-0.297 0.48,-0.269C0.464,-0.242 0.441,-0.22 0.41,-0.204C0.379,-0.189 0.343,-0.181 0.302,-0.181C0.284,-0.181 0.269,-0.182 0.257,-0.183C0.245,-0.185 0.233,-0.188 0.221,-0.191C0.213,-0.185 0.206,-0.178 0.201,-0.168C0.195,-0.159 0.193,-0.149 0.193,-0.139C0.193,-0.125 0.198,-0.114 0.209,-0.106C0.22,-0.098 0.239,-0.094 0.265,-0.094L0.363,-0.094C0.398,-0.094 0.431,-0.087 0.46,-0.075C0.489,-0.062 0.512,-0.044 0.528,-0.022C0.545,0.001 0.553,0.025 0.553,0.053C0.553,0.106 0.531,0.146 0.486,0.175C0.441,0.203 0.378,0.217 0.295,0.217C0.239,0.217 0.194,0.212 0.16,0.2C0.127,0.188 0.103,0.171 0.089,0.147C0.074,0.123 0.067,0.092 0.067,0.055L0.145,0.055C0.145,0.077 0.149,0.095 0.158,0.108C0.166,0.121 0.181,0.131 0.203,0.137C0.225,0.144 0.255,0.147 0.295,0.147C0.354,0.147 0.397,0.14 0.425,0.125C0.452,0.11 0.466,0.088 0.466,0.058C0.466,0.034 0.455,0.014 0.432,0.001C0.41,-0.012 0.38,-0.019 0.344,-0.019L0.248,-0.019C0.218,-0.019 0.193,-0.024 0.172,-0.033C0.152,-0.042 0.137,-0.054 0.127,-0.07C0.117,-0.085 0.112,-0.102 0.112,-0.121C0.112,-0.138 0.117,-0.155 0.127,-0.171C0.137,-0.188 0.152,-0.202 0.171,-0.215C0.14,-0.231 0.117,-0.252 0.103,-0.276C0.088,-0.3 0.081,-0.33 0.081,-0.364C0.081,-0.4 0.09,-0.432 0.108,-0.461C0.126,-0.489 0.152,-0.512 0.184,-0.528C0.217,-0.544 0.254,-0.552 0.296,-0.552C0.339,-0.552 0.375,-0.554 0.404,-0.557C0.432,-0.561 0.456,-0.566 0.475,-0.572C0.494,-0.578 0.517,-0.586 0.542,-0.597L0.569,-0.516ZM0.296,-0.489C0.254,-0.489 0.222,-0.477 0.201,-0.455C0.179,-0.432 0.169,-0.402 0.169,-0.364C0.169,-0.326 0.18,-0.295 0.201,-0.273C0.223,-0.25 0.255,-0.238 0.298,-0.238C0.336,-0.238 0.365,-0.249 0.385,-0.272C0.405,-0.294 0.415,-0.325 0.415,-0.365C0.415,-0.405 0.405,-0.436 0.385,-0.457C0.365,-0.478 0.335,-0.489 0.296,-0.489Z" style="fill-rule:nonzero;stroke:black;stroke-width:0.01px;"/>
            </g>
        </g>
        <g id="i" transform="matrix(192,0,0,192,718.12,955.766)">
            <path d="M0.308,-1.631C0.326,-1.631 0.342,-1.626 0.353,-1.614C0.365,-1.603 0.371,-1.588 0.371,-1.571C0.371,-1.554 0.365,-1.539 0.353,-1.527C0.342,-1.516 0.326,-1.51 0.308,-1.51C0.29,-1.51 0.275,-1.516 0.263,-1.528C0.251,-1.539 0.246,-1.554 0.246,-1.571C0.246,-1.588 0.251,-1.603 0.263,-1.614C0.275,-1.626 0.29,-1.631 0.308,-1.631ZM0.129,-1.379L0.376,-1.379L0.376,-0.068L0.529,-0.068L0.529,-0L0.124,-0L0.124,-0.068L0.29,-0.068L0.29,-1.31L0.129,-1.31L0.129,-1.379Z" style="fill:rgb(101,4,25);fill-rule:nonzero;stroke:rgb(101,4,25);stroke-width:0.01px;"/>
        </g>
    </g>
</svg>