<?xml version="1.0" encoding="utf-8"?>
<!-- Generator: Adobe Illustrator 24.0.1, SVG Export Plug-In . SVG Version: 6.00 Build 0)  -->
<svg version="1.1" id="Calque_1" xmlns="http://www.w3.org/2000/svg" xmlns:xlink="http://www.w3.org/1999/xlink" x="0px" y="0px"
	 viewBox="0 0 390 147" style="enable-background:new 0 0 390 147;" xml:space="preserve">
<style type="text/css">
	.st0{fill:#FDCA65;}
	.st1{fill:#EC6360;}
	.st2{fill:#020203;}
	.st3{fill:#FFFFFF;}
	.st4{fill:#EB6260;}
</style>
<g>
	<path class="st0" d="M44,47.6h-3.1c-0.3-2.7-0.9-4.7-1.8-6c-0.9-1.3-1.9-2.1-2.9-2.4c-1-0.3-2.3-0.5-3.6-0.5H27v32.1
		c0,1.3,0.2,2.3,0.4,2.9c0.2,0.7,0.9,1.3,1.8,1.7c0.9,0.4,2.4,0.6,4.2,0.6v3h-22v-3c2.7,0,4.4-0.4,5.2-1.2c0.8-0.8,1.2-2.1,1.2-4
		V38.7h-4.7c-1.8,0-3.3,0.2-4.6,0.5c-1.2,0.3-2.3,1.1-3.2,2.4c-0.9,1.3-1.4,3.3-1.6,6H0.8V35.2H44L44,47.6L44,47.6z"/>
	<path class="st0" d="M83.2,79H66.6v-3c1.5,0,2.5-0.2,3.1-0.8c0.6-0.6,0.9-1.3,0.9-2.3V62c0-1.1-0.1-2.1-0.2-2.9
		c-0.2-0.9-0.5-1.7-1.1-2.4c-0.6-0.7-1.5-1-2.8-1c-1,0-2.1,0.2-3.1,0.8c-1,0.6-1.8,1.3-2.4,2.1c-0.6,1-0.9,2-1.2,2.8
		c-0.2,0.9-0.2,2.1-0.2,3.3v5.5c0,1.5,0.1,2.6,0.2,3.3c0.1,0.7,0.5,1.3,1,1.7c0.6,0.4,1.4,0.6,2.8,0.6v3H46.6v-3
		c1.4,0,2.5-0.2,3.2-0.5c0.6-0.3,1.1-0.7,1.3-1.3c0.2-0.6,0.2-1.6,0.2-2.9V44.1c0-1.6-0.2-2.7-0.8-3.2c-0.6-0.6-1.8-0.9-3.9-0.9
		v-2.9l13-2.8v21.8c1.3-1.3,2.6-2.4,3.9-3.4c1.3-0.9,3.2-1.3,5.7-1.3c1.1,0,2.2,0.2,3.3,0.5s2.1,0.8,3,1.4c0.9,0.6,1.6,1.3,2,2.1
		c0.9,1.6,1.3,3.6,1.3,6.2v9.6c0,1.8,0.2,3.1,0.7,3.7c0.5,0.6,1.7,1,3.6,1L83.2,79L83.2,79z"/>
	<path class="st0" d="M115.7,63.8H95.8c0,0.4,0.1,1.3,0.2,2.6c0.1,1.3,0.4,2.7,0.9,4.1c0.5,1.4,1.3,2.6,2.6,3.6
		c1.3,0.9,2.9,1.4,5,1.4c1.1,0,2.5-0.3,4.1-0.9c1.6-0.6,3-1.7,4.2-3.4l2.5,1.7c-2.5,4.1-6.6,6.1-12.1,6.1c-2.4,0-4.7-0.4-6.8-1.1
		c-2.1-0.7-3.8-1.7-5.2-3c-1.4-1.3-2.5-2.8-3.2-4.5c-0.8-1.7-1.1-3.6-1.1-5.5c0-2.6,0.6-5.1,1.9-7.3c1.3-2.2,3.1-3.9,5.4-5.3
		c2.4-1.3,5.1-2,8.1-2c2.9,0,5.5,0.6,7.5,1.9c2.1,1.3,3.6,2.9,4.5,5C115.2,59.3,115.7,61.5,115.7,63.8z M107.7,60.8
		c0-4.9-2-7.3-5.8-7.3c-1.9,0-3.3,0.7-4.3,2.1c-1,1.3-1.6,3.2-1.7,5.4L107.7,60.8L107.7,60.8z"/>
	<path class="st0" d="M175.4,64.6L175,78.9H136v-3c2.7,0,4.4-0.4,5.2-1.2c0.8-0.8,1.2-2.1,1.2-4V43.2c0-1.3-0.2-2.2-0.4-2.9
		c-0.2-0.7-0.8-1.3-1.7-1.7c-0.9-0.4-2.3-0.6-4.3-0.6v-2.8h36.3l0.6,11.4h-3c-0.6-2.5-1.4-4.3-2.3-5.5s-1.8-1.7-2.9-2
		c-1.1-0.2-2.7-0.4-4.9-0.4h-8.1v15.5h4.4c1.5,0,2.7-0.2,3.4-0.4c0.8-0.2,1.3-0.8,1.6-1.5c0.3-0.8,0.5-2,0.6-3.6h3.1v14.6h-3
		c-0.1-1.6-0.3-2.8-0.6-3.6c-0.3-0.8-0.9-1.3-1.7-1.5c-0.7-0.2-1.9-0.4-3.4-0.4h-4.4v10.3c0,1.7,0.1,3,0.2,3.8
		c0.1,0.8,0.3,1.4,0.7,2c0.4,0.6,1,0.9,1.8,1.2c0.9,0.2,2.1,0.4,3.6,0.4h3.6c1.5,0,2.9-0.2,4.3-0.6c1.3-0.4,2.7-1.3,3.9-2.9
		c1.3-1.6,2.2-4,2.7-7.3h2.9V64.6z"/>
	<path class="st0" d="M212.1,54.5c-0.9,0.2-1.7,0.4-2.1,0.7c-0.6,0.3-0.9,0.9-1.4,1.6c-0.5,0.7-1.2,2.2-2.2,4.3l-9.5,19.7
		c-2.1,4.3-3.6,7.2-4.3,8.6c-0.8,1.4-1.7,2.6-2.6,3.4c-0.9,0.8-2.2,1.3-3.6,1.3c-1,0-1.8-0.3-2.6-0.9c-0.7-0.6-1.1-1.3-1.1-2.3
		c0-1.3,0.5-2.3,1.3-2.8c0.9-0.6,2.1-1.1,3.5-1.5c1.9-0.6,3.4-1.6,4.4-3.1c1-1.5,1.9-3.1,2.6-4.9l-12.3-21.7c-0.6-1-1.1-1.7-1.6-2.1
		s-1.1-0.5-2-0.5v-2.8h15.6v3h-1c-1.5,0-2.2,0.4-2.2,1.1c0,0.4,0.3,1.2,0.9,2.2l6.8,12l5.1-10.3c0.7-1.5,1-2.4,1-3
		c0-0.6-0.3-1.2-0.9-1.5c-0.6-0.4-1.4-0.6-2.2-0.6v-3H212v2.9H212.1z"/>
	<path class="st0" d="M242.4,63.8h-19.8c0,0.4,0.1,1.3,0.2,2.6c0.1,1.3,0.4,2.7,0.9,4.1c0.5,1.4,1.3,2.6,2.6,3.6s2.9,1.4,5,1.4
		c1.1,0,2.5-0.3,4.1-0.9c1.6-0.6,3-1.7,4.2-3.4l2.5,1.7c-2.5,4.1-6.6,6.1-12.1,6.1c-2.4,0-4.7-0.4-6.8-1.1c-2.1-0.7-3.8-1.7-5.2-3
		c-1.4-1.3-2.5-2.8-3.2-4.5c-0.8-1.7-1.1-3.6-1.1-5.5c0-2.6,0.6-5.1,1.9-7.3c1.3-2.2,3.1-3.9,5.4-5.3c2.4-1.3,5.1-2,8.1-2
		c2.9,0,5.5,0.6,7.5,1.9c2.1,1.3,3.6,2.9,4.5,5C242,59.3,242.4,61.5,242.4,63.8z M234.5,60.8c0-4.9-2-7.3-5.8-7.3
		c-1.9,0-3.3,0.7-4.3,2.1c-1,1.3-1.6,3.2-1.7,5.4L234.5,60.8L234.5,60.8z"/>
	<path class="st0" d="M280.8,64.6c0,2.1-0.4,4-1.1,5.8c-0.8,1.8-1.8,3.3-3.2,4.7c-1.3,1.3-2.9,2.3-4.7,3s-3.6,1-5.5,1
		c-2.3,0-4.3-0.5-5.9-1.3c-1.7-0.9-3-2.1-4.1-3.5c-2,2-3.4,3.6-4.3,4.8h-2.5V43.3c0-1.3-0.2-2.1-0.5-2.7c-0.3-0.6-0.8-0.9-1.4-1.1
		c-0.7-0.2-1.7-0.2-3.2-0.3v-2.9l13.3-2.8v20.9c1.1-1,2.4-1.9,3.8-2.7s3.3-1.2,5.7-1.2c2.2,0,4.1,0.4,5.8,1.2s3.2,1.9,4.3,3.2
		c1.1,1.3,2,2.8,2.5,4.5C280.5,61,280.8,62.8,280.8,64.6z M271.8,64.3c0-2.7-0.5-5.1-1.3-7.1c-0.9-2.1-2.7-3.1-5.3-3.1
		c-0.9,0-1.9,0.2-2.8,0.6c-0.9,0.4-1.7,0.9-2.5,1.5c-0.8,0.6-1.5,1.4-2.2,2.3v13.2c1.3,1.7,2.6,2.8,3.9,3.2c1.3,0.5,2.4,0.7,3.4,0.7
		c1.8,0,3.2-0.6,4.3-1.8c1-1.2,1.7-2.6,2.1-4.3S271.8,66,271.8,64.3z"/>
	<path class="st0" d="M338.7,79h-18.6v-3h1.4c1.3,0,2.1-0.2,2.8-0.6c0.6-0.3,0.9-0.8,1-1.4c0.2-0.6,0.2-1.6,0.2-2.8V43.7
		c0-1.6-0.4-2.5-1.1-3c-0.7-0.4-2.1-0.6-4.3-0.6v-3l13.7-2.8v36.9c0,1.2,0.1,2.1,0.2,2.8s0.5,1.1,1,1.4c0.6,0.3,1.5,0.6,2.8,0.6h0.9
		L338.7,79L338.7,79z"/>
	<path class="st0" d="M359.3,79h-18.6v-3h1.4c1.3,0,2.1-0.2,2.8-0.6c0.6-0.3,0.9-0.8,1-1.4c0.2-0.6,0.2-1.6,0.2-2.8V43.7
		c0-1.6-0.4-2.5-1.1-3c-0.7-0.4-2.1-0.6-4.3-0.6v-3l13.7-2.8v36.9c0,1.2,0.1,2.1,0.2,2.8s0.5,1.1,1,1.4c0.6,0.3,1.5,0.6,2.8,0.6h0.9
		L359.3,79L359.3,79z"/>
	<path class="st0" d="M389,70.3c0,1.8-0.6,3.5-1.7,4.7c-1.1,1.3-2.6,2.3-4.6,3s-4.1,1-6.6,1c-1.7,0-3.4-0.2-5.1-0.5
		c-1.7-0.3-3.2-0.9-4.5-1.5l-1.3,1.8h-2.5l-0.3-8.4h2.7c0.5,1.4,1.6,2.8,3.2,3.9c1.7,1.2,4.2,1.7,7.4,1.7c0.8,0,1.7-0.1,2.6-0.2
		c0.9-0.2,1.8-0.5,2.8-0.9c0.9-0.5,2.4-1.3,2.4-2.5c0-0.9-1.6-1.7-2.4-2.1c-0.9-0.5-2.5-0.9-5.1-1.6c-3-0.8-5.4-1.5-7.3-2.1
		s-3.5-1.7-4.8-2.9c-1.3-1.3-2-2.9-2-4.9c0-2.5,1.2-4.6,3.5-6.1c2.4-1.5,5.4-2.2,9.2-2.2c2.4,0,4.3,0.2,5.7,0.6
		c1.4,0.4,2.6,0.8,3.6,1.3l0.8-1.7h2.6v7.5h-2.7c-0.2-0.9-0.8-1.7-1.6-2.4c-0.9-0.7-2-1.3-3.3-1.7c-1.4-0.4-3-0.6-4.8-0.6
		c-1.5,0-3,0.2-4.5,0.5c-1.5,0.3-2.2,1.1-2.2,2.3c0,0.5,0.2,0.9,0.5,1.3c0.3,0.3,0.8,0.6,1.5,0.9c0.7,0.3,2,0.6,3.7,1.1
		c1.8,0.5,2.8,0.7,3.2,0.8c3.5,0.9,6.4,2,8.6,3.2C387.9,64.8,389,67,389,70.3z"/>
</g>
<g>
	<path class="st1" d="M289.1,64.7c0-9,7.3-16.4,16.4-16.4c5.4,0,10.2,2.6,13.2,6.7c-2.9-5.8-9-9.9-16-9.9c-9.9,0-18,8-18,18
		s8,18,18,18c0.4,0,0.8,0,1.1,0C295.6,80.1,289.1,73.2,289.1,64.7z"/>
</g>
<circle class="st2" cx="305.5" cy="64.6" r="14.2"/>
<circle class="st3" cx="312.7" cy="65.2" r="3.4"/>
<g>
	<path class="st4" d="M0.8,94.2h7.5v1l-2.2,0.7H6l4.1,12.5l3.5-9.7l-0.9-2.8l-2.1-0.7v-1h7.5v1l-2.5,0.7h-0.1l3.9,12.5l4.3-12.5h0
		l-2.4-0.7v-1h6.4v1l-2.4,0.7l-5.8,16.1h-1.3l-3.8-11.2l-4.2,11.2H8.8L3.2,95.8l-2.4-0.7V94.2z"/>
	<path class="st4" d="M27.2,105.6c0-0.9,0.2-1.7,0.5-2.5s0.8-1.5,1.3-2s1.2-1,2-1.3c0.8-0.3,1.6-0.5,2.5-0.5c1.9,0,3.4,0.6,4.4,1.7
		c1,1.1,1.5,2.5,1.5,4.2v0.3l-9.5,0c0,1.7,0.4,3.1,1.2,3.9c0.8,0.9,1.9,1.3,3.4,1.3c0.7,0,1.4-0.1,2-0.4c0.6-0.2,1.2-0.6,1.6-1
		l0.7,0.7c-1.2,1.3-2.9,2-4.9,2c-0.9,0-1.8-0.1-2.6-0.4c-0.8-0.3-1.5-0.7-2.1-1.2s-1.1-1.2-1.5-2.1
		C27.3,107.6,27.1,106.7,27.2,105.6L27.2,105.6z M36.8,104.3c0-1.1-0.3-2-0.9-2.7c-0.5-0.7-1.3-1-2.3-1c-1,0-1.8,0.4-2.4,1.1
		c-0.6,0.7-1,1.6-1.1,2.7H36.8z"/>
	<path class="st4" d="M48.6,108.6c0-1,0.4-1.8,1.1-2.5s1.7-1.2,2.9-1.6c1.2-0.3,2.6-0.5,4.1-0.5c0-1-0.3-1.8-0.9-2.4
		c-0.6-0.6-1.5-0.9-2.5-0.9c-1.4,0-2.6,0.6-3.4,1.9l-0.9-0.7c0.4-0.8,1-1.4,1.8-1.9c0.8-0.5,1.8-0.7,2.9-0.7c1.7,0,3,0.5,3.9,1.5
		c1,1,1.4,2.2,1.4,3.8v5.7l2.1,0.6v0.8h-4L57,110c-0.3,0.6-0.8,1.1-1.5,1.5c-0.7,0.4-1.6,0.7-2.6,0.7c-1.3,0-2.3-0.3-3.1-1
		C49,110.5,48.6,109.7,48.6,108.6L48.6,108.6z M51.2,108.5c0,0.7,0.2,1.3,0.7,1.7c0.4,0.4,1,0.6,1.8,0.6c0.9,0,1.6-0.3,2.2-0.9
		c0.6-0.6,0.9-1.4,0.9-2.3V105c-1.8,0.1-3.1,0.4-4.1,1C51.7,106.6,51.2,107.4,51.2,108.5L51.2,108.5z"/>
	<path class="st4" d="M63.7,110.9l2-0.6v-9.1l-1.9-0.6v-0.8l4.2-0.1v3c0.3-1,0.8-1.8,1.5-2.4c0.7-0.6,1.5-1,2.4-1
		c0.6,0,1.1,0.1,1.4,0.4l-0.5,2.3c-0.6-0.4-1.2-0.5-1.8-0.5c-1.4,0-2.4,1.1-3,3.2v5.7l2.1,0.6v0.8h-6.4V110.9z"/>
	<path class="st4" d="M75,105.6c0-0.9,0.2-1.7,0.5-2.5s0.8-1.5,1.3-2c0.6-0.6,1.2-1,2-1.3c0.8-0.3,1.6-0.5,2.5-0.5
		c1.9,0,3.4,0.6,4.4,1.7c1,1.1,1.5,2.5,1.5,4.2v0.3l-9.5,0c0,1.7,0.4,3.1,1.2,3.9c0.8,0.9,1.9,1.3,3.4,1.3c0.7,0,1.4-0.1,2-0.4
		c0.6-0.2,1.2-0.6,1.6-1l0.7,0.7c-1.2,1.3-2.9,2-4.9,2c-0.9,0-1.8-0.1-2.6-0.4c-0.8-0.3-1.5-0.7-2.1-1.2c-0.6-0.5-1.1-1.2-1.5-2.1
		C75.2,107.6,75,106.7,75,105.6L75,105.6z M84.6,104.3c0-1.1-0.3-2-0.9-2.7c-0.5-0.7-1.3-1-2.3-1c-1,0-1.8,0.4-2.4,1.1
		c-0.6,0.7-1,1.6-1.1,2.7H84.6z"/>
	<path class="st4" d="M96.3,100l2.5-0.3v-3.3l2.2-0.4v3.6h2.8v1.4H101v8.1c0,0.4,0.1,0.8,0.4,1c0.2,0.2,0.6,0.4,0.9,0.4
		c0.5,0,1-0.2,1.5-0.5l0.5,1c-0.7,0.6-1.6,0.9-2.6,0.9c-0.9,0-1.7-0.3-2.2-0.8c-0.5-0.5-0.8-1.2-0.8-2.2v-7.9h-2.3L96.3,100z"/>
	<path class="st4" d="M106.9,110.9l2-0.6V95.7l-1.9-0.6v-0.8l4.2-0.1v7.1c0.3-0.6,0.8-1,1.5-1.4c0.7-0.3,1.4-0.5,2.2-0.5
		c1.4,0,2.5,0.4,3.3,1.1c0.8,0.7,1.2,1.7,1.2,2.9v7l2.1,0.6v0.8h-6.4v-0.8l2-0.6v-6.5c0-1-0.2-1.7-0.7-2.3c-0.5-0.5-1.2-0.8-2.1-0.8
		c-0.8,0-1.4,0.2-1.9,0.7c-0.5,0.5-0.9,1.1-1.1,1.8v7.1l2.1,0.6v0.8h-6.4L106.9,110.9z"/>
	<path class="st4" d="M124,105.6c0-0.9,0.2-1.7,0.5-2.5s0.8-1.5,1.3-2c0.6-0.6,1.2-1,2-1.3c0.8-0.3,1.6-0.5,2.5-0.5
		c1.9,0,3.4,0.6,4.4,1.7c1,1.1,1.5,2.5,1.5,4.2v0.3l-9.5,0c0,1.7,0.4,3.1,1.2,3.9c0.8,0.9,1.9,1.3,3.4,1.3c0.7,0,1.4-0.1,2-0.4
		c0.6-0.2,1.2-0.6,1.6-1l0.7,0.7c-1.2,1.3-2.9,2-4.9,2c-0.9,0-1.8-0.1-2.6-0.4c-0.8-0.3-1.5-0.7-2.1-1.2c-0.6-0.5-1.1-1.2-1.5-2.1
		C124.2,107.6,124,106.7,124,105.6L124,105.6z M133.6,104.3c0-1.1-0.3-2-0.9-2.7c-0.5-0.7-1.3-1-2.3-1c-1,0-1.8,0.4-2.4,1.1
		c-0.6,0.7-1,1.6-1.1,2.7H133.6z"/>
	<path class="st4" d="M145.3,100l2.5-0.3v-3.3l2.2-0.4v3.6h2.8v1.4H150v8.1c0,0.4,0.1,0.8,0.4,1c0.2,0.2,0.6,0.4,0.9,0.4
		c0.5,0,1-0.2,1.5-0.5l0.5,1c-0.7,0.6-1.6,0.9-2.6,0.9c-0.9,0-1.7-0.3-2.2-0.8c-0.5-0.5-0.8-1.2-0.8-2.2v-7.9h-2.3L145.3,100z"/>
	<path class="st4" d="M155.8,108.6c0-1,0.4-1.8,1.1-2.5s1.7-1.2,2.9-1.6c1.2-0.3,2.6-0.5,4.1-0.5c0-1-0.3-1.8-0.9-2.4
		c-0.6-0.6-1.5-0.9-2.5-0.9c-1.4,0-2.6,0.6-3.4,1.9l-0.9-0.7c0.4-0.8,1-1.4,1.8-1.9c0.8-0.5,1.8-0.7,2.9-0.7c1.7,0,3,0.5,3.9,1.5
		c1,1,1.4,2.2,1.4,3.8v5.7l2.1,0.6v0.8h-4l-0.1-1.7c-0.3,0.6-0.8,1.1-1.5,1.5c-0.7,0.4-1.6,0.7-2.6,0.7c-1.3,0-2.3-0.3-3.1-1
		C156.2,110.5,155.8,109.7,155.8,108.6L155.8,108.6z M158.4,108.5c0,0.7,0.2,1.3,0.7,1.7c0.4,0.4,1,0.6,1.8,0.6
		c0.9,0,1.6-0.3,2.2-0.9c0.6-0.6,0.9-1.4,0.9-2.3V105c-1.8,0.1-3.1,0.4-4.1,1C158.9,106.6,158.5,107.4,158.4,108.5L158.4,108.5z"/>
	<path class="st4" d="M171,110.9l2-0.6v-9.1l-1.9-0.6v-0.8l4.2-0.1v3c0.3-1,0.8-1.8,1.5-2.4c0.7-0.6,1.5-1,2.4-1
		c0.6,0,1.1,0.1,1.4,0.4l-0.5,2.3c-0.6-0.4-1.2-0.5-1.8-0.5c-1.4,0-2.4,1.1-3,3.2v5.7l2.1,0.6v0.8H171V110.9z"/>
	<path class="st4" d="M181.9,109.5c0-0.6,0.2-1.2,0.6-1.7c0.4-0.5,0.9-0.9,1.5-1.2c-0.8-0.8-1.2-1.8-1.2-2.9c0-0.9,0.3-1.7,0.8-2.4
		c0.5-0.7,1.2-1.2,2-1.5c0.8-0.3,1.6-0.5,2.6-0.5c1,0,1.9,0.2,2.7,0.6l3.6-0.6h0.5v1.7h-2.6c0.7,0.8,1,1.7,1,2.7
		c0,0.7-0.1,1.3-0.4,1.9c-0.3,0.6-0.7,1-1.2,1.4c-0.5,0.4-1.1,0.6-1.7,0.8c-0.6,0.2-1.3,0.3-2,0.3c-1.2,0-2.2-0.3-3.2-0.8
		c-0.4,0.1-0.7,0.4-1,0.7c-0.2,0.3-0.4,0.6-0.4,1c0,0.9,0.8,1.3,2.4,1.3h4.3c1.3,0,2.4,0.3,3.1,0.8c0.8,0.5,1.2,1.3,1.2,2.4
		c0,0.6-0.2,1.2-0.5,1.8c-0.4,0.5-0.8,1-1.4,1.3c-0.6,0.4-1.3,0.6-2,0.8c-0.8,0.2-1.6,0.3-2.4,0.3c-1,0-1.8-0.1-2.6-0.3
		s-1.4-0.6-1.9-1c-0.5-0.5-0.7-1-0.7-1.7c0-0.5,0.1-1,0.4-1.5l2.5-0.4l0.1,0.2c-0.4,0.6-0.5,1.2-0.5,1.8c0,0.6,0.3,1.1,0.8,1.4
		c0.5,0.3,1.3,0.5,2.3,0.5c0.5,0,1-0.1,1.5-0.2c0.5-0.1,1-0.3,1.4-0.5c0.4-0.2,0.8-0.5,1-0.9c0.3-0.4,0.4-0.8,0.4-1.2
		c0-0.5-0.2-0.8-0.5-1.1c-0.4-0.2-0.9-0.4-1.6-0.4h-4.5c-1.4,0-2.4-0.3-3.1-0.8C182.3,111.1,182,110.3,181.9,109.5L181.9,109.5z
		 M185.1,103.7c0,1,0.3,1.8,0.8,2.4c0.5,0.6,1.2,0.9,2.1,0.9s1.6-0.3,2.1-0.9c0.5-0.6,0.8-1.4,0.8-2.4c0-1-0.2-1.8-0.7-2.4
		c-0.5-0.6-1.2-0.9-2.1-0.9s-1.6,0.3-2.1,0.9C185.4,101.9,185.2,102.7,185.1,103.7L185.1,103.7z"/>
	<path class="st4" d="M197.3,105.6c0-0.9,0.2-1.7,0.5-2.5s0.8-1.5,1.3-2c0.6-0.6,1.2-1,2-1.3c0.8-0.3,1.6-0.5,2.5-0.5
		c1.9,0,3.4,0.6,4.4,1.7c1,1.1,1.5,2.5,1.5,4.2v0.3l-9.5,0c0,1.7,0.4,3.1,1.2,3.9c0.8,0.9,1.9,1.3,3.4,1.3c0.7,0,1.4-0.1,2-0.4
		c0.6-0.2,1.2-0.6,1.6-1l0.7,0.7c-1.2,1.3-2.9,2-4.9,2c-0.9,0-1.8-0.1-2.6-0.4c-0.8-0.3-1.5-0.7-2.1-1.2c-0.6-0.5-1.1-1.2-1.5-2.1
		C197.4,107.6,197.2,106.7,197.3,105.6L197.3,105.6z M206.8,104.3c0-1.1-0.3-2-0.9-2.7c-0.5-0.7-1.3-1-2.3-1c-1,0-1.8,0.4-2.4,1.1
		c-0.6,0.7-1,1.6-1.1,2.7H206.8z"/>
	<path class="st4" d="M211.7,100l2.5-0.3v-3.3l2.2-0.4v3.6h2.8v1.4h-2.8v8.1c0,0.4,0.1,0.8,0.4,1c0.2,0.2,0.6,0.4,0.9,0.4
		c0.5,0,1-0.2,1.5-0.5l0.5,1c-0.7,0.6-1.6,0.9-2.6,0.9c-0.9,0-1.7-0.3-2.2-0.8c-0.5-0.5-0.8-1.2-0.8-2.2v-7.9h-2.3L211.7,100z"/>
	<path class="st4" d="M222.2,105.6c0-0.9,0.2-1.7,0.5-2.5s0.8-1.5,1.3-2c0.6-0.6,1.2-1,2-1.3c0.8-0.3,1.6-0.5,2.5-0.5
		c1.9,0,3.4,0.6,4.4,1.7c1,1.1,1.5,2.5,1.5,4.2v0.3l-9.5,0c0,1.7,0.4,3.1,1.2,3.9c0.8,0.9,1.9,1.3,3.4,1.3c0.7,0,1.4-0.1,2-0.4
		c0.6-0.2,1.2-0.6,1.6-1l0.7,0.7c-1.2,1.3-2.9,2-4.9,2c-0.9,0-1.8-0.1-2.6-0.4c-0.8-0.3-1.5-0.7-2.1-1.2c-0.6-0.5-1.1-1.2-1.5-2.1
		C222.3,107.6,222.1,106.7,222.2,105.6L222.2,105.6z M231.7,104.3c0-1.1-0.3-2-0.9-2.7c-0.5-0.7-1.3-1-2.3-1c-1,0-1.8,0.4-2.4,1.1
		c-0.6,0.7-1,1.6-1.1,2.7H231.7z"/>
	<path class="st4" d="M236.6,105.6c0-1.1,0.3-2.2,0.8-3.2c0.5-1,1.3-1.7,2.2-2.3c1-0.6,2.1-0.9,3.3-0.9c1.4,0,2.7,0.5,3.7,1.4v-5
		l-1.9-0.6v-0.8l4.2-0.1V110l1.9,0.6v0.8l-4.2,0.5v-1c-1.1,0.8-2.4,1.2-3.7,1.2c-1.2,0-2.2-0.3-3.2-0.8c-1-0.6-1.7-1.3-2.3-2.3
		C236.9,108,236.7,106.9,236.6,105.6L236.6,105.6z M239.4,105.6c0,1.7,0.3,3,1,3.9c0.7,0.9,1.7,1.4,2.9,1.4c0.6,0,1.2-0.1,1.8-0.4
		c0.6-0.3,1.1-0.6,1.5-1.1V102c-0.9-1-1.9-1.5-3.3-1.5c-1.2,0-2.2,0.5-2.9,1.4C239.7,102.8,239.4,104.1,239.4,105.6L239.4,105.6z"/>
	<path class="st4" d="M260.4,108.6c0-1,0.4-1.8,1.1-2.5c0.7-0.7,1.7-1.2,2.9-1.6c1.2-0.3,2.6-0.5,4.1-0.5c0-1-0.3-1.8-0.9-2.4
		c-0.6-0.6-1.5-0.9-2.5-0.9c-1.4,0-2.6,0.6-3.4,1.9l-0.9-0.7c0.4-0.8,1-1.4,1.8-1.9c0.8-0.5,1.8-0.7,2.9-0.7c1.7,0,3,0.5,3.9,1.5
		c1,1,1.4,2.2,1.4,3.8v5.7l2.1,0.6v0.8h-4l-0.1-1.7c-0.3,0.6-0.8,1.1-1.5,1.5c-0.7,0.4-1.6,0.7-2.6,0.7c-1.3,0-2.3-0.3-3.1-1
		C260.8,110.5,260.4,109.7,260.4,108.6L260.4,108.6z M263,108.5c0,0.7,0.2,1.3,0.7,1.7c0.4,0.4,1,0.6,1.8,0.6c0.9,0,1.6-0.3,2.2-0.9
		c0.6-0.6,0.9-1.4,0.9-2.3V105c-1.8,0.1-3.1,0.4-4.1,1C263.5,106.6,263,107.4,263,108.5L263,108.5z"/>
	<path class="st4" d="M275.5,99.7l4.2-0.1v8.1c0,1,0.3,1.7,0.8,2.3s1.2,0.8,2.1,0.8c0.8,0,1.4-0.2,1.9-0.7c0.5-0.5,0.9-1.1,1.1-1.8
		v-7.1l-1.9-0.6v-0.8l4.2-0.1v10.6l1.9,0.6v0.8l-4.2,0.1l-0.1-1.6c-0.3,0.6-0.8,1-1.5,1.4c-0.6,0.3-1.4,0.5-2.2,0.5
		c-1.4,0-2.4-0.4-3.3-1.1s-1.2-1.7-1.2-2.9v-7l-1.9-0.6L275.5,99.7z"/>
	<path class="st4" d="M292.3,105.6c0-1.1,0.3-2.2,0.8-3.2c0.5-1,1.3-1.7,2.2-2.3s2.1-0.9,3.3-0.9c1.4,0,2.7,0.5,3.7,1.4v-5l-1.9-0.6
		v-0.8l4.2-0.1V110l1.9,0.6v0.8l-4.2,0.5v-1c-1.1,0.8-2.4,1.2-3.7,1.2c-1.2,0-2.2-0.3-3.2-0.8c-1-0.6-1.7-1.3-2.3-2.3
		C292.5,108,292.3,106.9,292.3,105.6L292.3,105.6z M295,105.6c0,1.7,0.3,3,1,3.9c0.7,0.9,1.7,1.4,2.9,1.4c0.6,0,1.2-0.1,1.8-0.4
		c0.6-0.3,1.1-0.6,1.5-1.1V102c-0.9-1-1.9-1.5-3.3-1.5c-1.3,0-2.2,0.5-2.9,1.4C295.3,102.8,295,104.1,295,105.6L295,105.6z"/>
	<path class="st4" d="M309.3,110.9l2-0.6v-9.1l-1.9-0.6v-0.8l4.2-0.1v10.6l2.1,0.6v0.8h-6.4V110.9z M310.7,95.3
		c0-0.4,0.2-0.8,0.5-1.1c0.3-0.3,0.7-0.4,1.1-0.4c0.4,0,0.8,0.1,1.1,0.4c0.3,0.3,0.5,0.6,0.5,1.1c0,0.4-0.2,0.8-0.5,1.1
		c-0.3,0.3-0.7,0.4-1.1,0.4s-0.8-0.1-1.1-0.4C310.8,96,310.7,95.7,310.7,95.3L310.7,95.3z"/>
	<path class="st4" d="M318.3,105.6c0-0.9,0.2-1.7,0.5-2.5s0.8-1.5,1.3-2c0.6-0.6,1.2-1,2-1.3c0.8-0.3,1.6-0.5,2.5-0.5
		c1.9,0,3.4,0.6,4.4,1.7c1,1.1,1.5,2.5,1.5,4.2v0.3l-9.5,0c0,1.7,0.4,3.1,1.2,3.9c0.8,0.9,1.9,1.3,3.4,1.3c0.7,0,1.4-0.1,2-0.4
		c0.6-0.2,1.2-0.6,1.6-1l0.7,0.7c-1.2,1.3-2.9,2-4.9,2c-0.9,0-1.8-0.1-2.6-0.4c-0.8-0.3-1.5-0.7-2.1-1.2c-0.6-0.5-1.1-1.2-1.5-2.1
		C318.4,107.6,318.2,106.7,318.3,105.6L318.3,105.6z M327.9,104.3c0-1.1-0.3-2-0.9-2.7c-0.5-0.7-1.3-1-2.3-1c-1,0-1.8,0.4-2.4,1.1
		c-0.6,0.7-1,1.6-1.1,2.7H327.9z"/>
	<path class="st4" d="M333,110.9l2-0.6v-9.1l-1.9-0.6v-0.8l4.2-0.1l0.1,1.6c0.3-0.6,0.8-1,1.5-1.4c0.6-0.3,1.4-0.5,2.2-0.5
		c1.4,0,2.5,0.4,3.3,1.1c0.8,0.7,1.2,1.7,1.2,2.9v7l2.1,0.6v0.8h-6.4v-0.8l2-0.6v-6.5c0-1-0.2-1.7-0.7-2.3s-1.2-0.8-2.1-0.8
		c-0.8,0-1.4,0.2-1.9,0.7c-0.5,0.5-0.9,1.1-1.1,1.8v7.1l2.1,0.6v0.8H333L333,110.9z"/>
	<path class="st4" d="M350.1,105.6c0-1.9,0.6-3.4,1.9-4.6c1.3-1.2,2.9-1.8,4.8-1.8c0.3,0,0.5,0,0.8,0c0.3,0,0.5,0,0.8,0.1
		c0.3,0,0.5,0,0.7,0.1s0.4,0.1,0.7,0.1c0.3,0,0.4,0.1,0.6,0.1c0.1,0,0.3,0.1,0.5,0.1c0.2,0,0.4,0.1,0.4,0.1l0,3.9h-0.8l-0.9-2.3
		c-0.7-0.6-1.7-1-2.8-1c-0.7,0-1.3,0.1-1.8,0.4c-0.5,0.3-0.9,0.7-1.2,1.2c-0.3,0.5-0.5,1-0.7,1.6c-0.1,0.6-0.2,1.2-0.2,1.8
		c0,1.6,0.4,2.9,1.1,3.8c0.7,1,1.8,1.4,3.2,1.4c0.7,0,1.3-0.1,2-0.3c0.7-0.2,1.2-0.5,1.7-0.9l0.6,0.8c-0.5,0.5-1.2,0.9-2,1.2
		c-0.8,0.3-1.7,0.5-2.6,0.5c-1.2,0-2.4-0.3-3.4-0.8s-1.8-1.3-2.4-2.3C350.4,108.1,350.1,106.9,350.1,105.6L350.1,105.6z"/>
	<path class="st4" d="M364.6,105.6c0-0.9,0.2-1.7,0.5-2.5s0.8-1.5,1.3-2c0.6-0.6,1.2-1,2-1.3c0.8-0.3,1.6-0.5,2.5-0.5
		c1.9,0,3.4,0.6,4.4,1.7c1,1.1,1.5,2.5,1.5,4.2v0.3l-9.5,0c0,1.7,0.4,3.1,1.2,3.9c0.8,0.9,1.9,1.3,3.4,1.3c0.7,0,1.4-0.1,2-0.4
		c0.6-0.2,1.2-0.6,1.6-1l0.7,0.7c-1.2,1.3-2.9,2-4.9,2c-0.9,0-1.8-0.1-2.6-0.4c-0.8-0.3-1.5-0.7-2.1-1.2c-0.6-0.5-1.1-1.2-1.5-2.1
		C364.7,107.6,364.6,106.7,364.6,105.6L364.6,105.6z M374.2,104.3c0-1.1-0.3-2-0.9-2.7c-0.5-0.7-1.3-1-2.3-1c-1,0-1.8,0.4-2.4,1.1
		c-0.6,0.7-1,1.6-1.1,2.7H374.2z"/>
	<path class="st4" d="M379.4,107.7h0.8l0.9,2.4c0.7,0.7,1.6,1,2.6,1c0.9,0,1.7-0.2,2.2-0.6c0.5-0.4,0.8-0.9,0.8-1.6
		c0-0.3-0.1-0.5-0.2-0.8c-0.1-0.2-0.3-0.4-0.5-0.6c-0.2-0.1-0.4-0.3-0.7-0.4c-0.3-0.1-0.6-0.3-0.8-0.3c-0.2-0.1-0.5-0.2-0.9-0.3
		c-1.2-0.4-2.2-0.8-2.9-1.4c-0.7-0.6-1-1.3-1-2.3c0-1.1,0.4-2,1.3-2.6c0.9-0.6,2.1-1,3.6-1c1.3,0,2.5,0.2,3.7,0.6v3.4h-0.8l-0.9-2.4
		c-0.6-0.4-1.3-0.5-2-0.5c-0.3,0-0.7,0-0.9,0.1s-0.6,0.2-0.8,0.3c-0.3,0.1-0.5,0.3-0.6,0.6c-0.2,0.3-0.2,0.5-0.2,0.9
		c0,0.2,0,0.4,0.1,0.6c0.1,0.2,0.2,0.3,0.3,0.5s0.3,0.3,0.4,0.4c0.1,0.1,0.3,0.2,0.6,0.3c0.3,0.1,0.5,0.2,0.6,0.2
		c0.1,0,0.3,0.1,0.7,0.2c0.3,0.1,0.5,0.1,0.6,0.2c1.2,0.4,2.2,0.8,2.8,1.4c0.6,0.6,1,1.3,1,2.3c0,1.2-0.5,2.1-1.5,2.9
		c-1,0.7-2.3,1.1-4,1.1c-0.7,0-1.4-0.1-2.2-0.3c-0.8-0.2-1.4-0.4-2-0.7L379.4,107.7z"/>
</g>
</svg>
