<?xml version="1.0" encoding="UTF-8" standalone="no"?>
<!DOCTYPE svg PUBLIC "-//W3C//DTD SVG 1.1//EN" "http://www.w3.org/Graphics/SVG/1.1/DTD/svg11.dtd">
<!-- HestiaLabs logo and text -->
<svg role="img" aria-label="‹HestiaLabs› logo"
    width="100%" height="100%" viewBox="0 0 390 147"
    version="1.1" xmlns="http://www.w3.org/2000/svg"
    xmlns:serif="http://www.serif.com/"
    xmlns:xlink="http://www.w3.org/1999/xlink" xml:space="preserve">
    <g id="Logo">
        <ellipse id="Foyer" cx="80.8" cy="72" rx="14.1" ry="14" style="fill:rgb(243,149,6);"/>
        <path id="Palabre" d="M126.8,38.2C119.4,49.6 104.2,52.8 92.8,45.4C91.7,44.7 90.6,43.8 89.6,42.9C89.6,42.9 89.4,42.7 89.1,42.5C87.6,41.2 82.6,37.5 76.4,38.5C74.4,38.8 72.5,39.3 69.6,40.3C67.6,41 66.6,41.4 64.9,42.1C57.1,45.4 57.5,51.9 56.9,54.4C56.6,56.2 56.1,58 55.4,59.8C55,60.8 54.6,61.7 54.1,62.6C53.2,65.3 48.4,72.7 53.9,83.1C55.1,85.3 56.8,88.8 58.2,91.3C60.3,94.8 60.9,95.9 63,98.4C69.7,106.1 75.4,105.3 77.6,106.1C87.1,108.4 92.9,117.9 90.6,127.4C88.3,136.9 78.8,142.7 69.3,140.4C59.8,138.1 54,128.6 56.3,119.1C56.4,118.7 56.5,118.3 56.6,118L56.6,117.7C56.6,117.6 56.7,117.5 56.7,117.3C57.2,115.4 58.3,109.7 55.7,102.8C54.7,100.2 53.7,97.9 51.5,94.4C50.4,92.6 49.1,90.6 46.9,87.4C40.2,77.8 32.7,78.5 29.9,78.1C26,78.3 21.9,77.7 18,76.2C3.6,70.6 -3.8,54 1.9,39.2C7.6,24.4 24.2,17 39,22.7C42.3,24 45.2,25.7 47.6,27.9C47.8,28 47.9,28.2 48.1,28.4C48.2,28.5 48.3,28.6 48.5,28.7C48.7,28.9 48.8,29 49,29.2C51.5,31.5 55.9,35.1 62.6,33.6C64.4,33.2 65.5,32.9 67.5,32.4C70.4,31.6 72.2,30.8 74,30C79.7,27.3 81.7,21 82.2,19.1L82.2,18.6C82.8,16.1 83.9,13.7 85.4,11.4C93,0 108.2,-3.2 119.6,4.2C130.9,11.6 134.2,26.8 126.8,38.2Z" style="fill:rgb(88,83,158);fill-rule:nonzero;"/>
    </g>
    <g id="HestiaLabs" serif:id="HestiaLabs (text)">
        <path d="M137.4,102L128.6,102L128.6,83.9L111.6,83.9L111.6,102L103,102L103,59.8L111.7,59.8L111.7,76.9L128.7,76.9L128.7,59.8L137.4,59.8L137.4,102Z" style="fill:rgb(79,78,80);fill-rule:nonzero;"/>
        <path d="M158.5,102.6C153.9,102.6 150.2,101.2 147.3,98.4C144.4,95.6 143,91.8 143,87.1L143,86.3C143,83.1 143.6,80.3 144.8,77.8C146,75.3 147.7,73.4 150,72.1C152.2,70.8 154.8,70.1 157.6,70.1C161.9,70.1 165.3,71.5 167.7,74.2C170.2,76.9 171.4,80.7 171.4,85.7L171.4,89L151.4,89C151.7,91 152.5,92.7 153.9,93.9C155.3,95.1 157,95.8 159.1,95.8C162.3,95.8 164.9,94.6 166.7,92.3L170.8,96.9C169.5,98.7 167.8,100.1 165.7,101.1C163.5,102.1 161.1,102.6 158.5,102.6ZM157.6,76.8C155.9,76.8 154.6,77.4 153.6,78.5C152.6,79.6 151.9,81.2 151.6,83.3L163.3,83.3L163.3,82.6C163.3,80.7 162.8,79.3 161.8,78.3C160.7,77.3 159.4,76.8 157.6,76.8Z" style="fill:rgb(79,78,80);fill-rule:nonzero;"/>
        <path d="M192.9,93.3C192.9,92.3 192.4,91.5 191.4,90.9C190.4,90.3 188.8,89.8 186.5,89.3C179,87.7 175.3,84.6 175.3,79.8C175.3,77 176.5,74.7 178.8,72.8C181.1,70.9 184.1,70 187.9,70C191.9,70 195.1,70.9 197.5,72.8C199.9,74.7 201.1,77.1 201.1,80.1L192.7,80.1C192.7,78.9 192.3,77.9 191.5,77.1C190.7,76.3 189.5,75.9 187.9,75.9C186.5,75.9 185.4,76.2 184.6,76.9C183.8,77.5 183.4,78.4 183.4,79.3C183.4,80.2 183.8,81 184.7,81.5C185.6,82 187.1,82.6 189.2,83C191.3,83.4 193,83.9 194.5,84.4C198.9,86 201.1,88.8 201.1,92.8C201.1,95.7 199.9,98 197.4,99.7C194.9,101.5 191.8,102.4 187.9,102.4C185.3,102.4 182.9,101.9 180.9,101C178.9,100.1 177.3,98.8 176.1,97.1C174.9,95.5 174.4,93.7 174.4,91.8L182.3,91.8C182.4,93.3 182.9,94.4 184,95.2C185.1,96 186.4,96.4 188.1,96.4C189.7,96.4 190.9,96.1 191.7,95.5C192.5,94.9 192.9,94.3 192.9,93.3Z" style="fill:rgb(79,78,80);fill-rule:nonzero;"/>
        <path d="M216.2,62.9L216.2,70.6L221.6,70.6L221.6,76.7L216.2,76.7L216.2,92.4C216.2,93.6 216.4,94.4 216.9,94.9C217.3,95.4 218.2,95.7 219.5,95.7C220.4,95.7 221.3,95.6 222,95.5L222,101.9C220.4,102.4 218.7,102.7 216.9,102.7C211,102.7 208,99.7 207.9,93.8L207.9,76.8L203.3,76.8L203.3,70.7L207.9,70.7L207.9,63L216.2,63L216.2,62.9Z" style="fill:rgb(79,78,80);fill-rule:nonzero;"/>
        <path d="M225.9,62.5C225.9,61.2 226.3,60.2 227.2,59.4C228.1,58.6 229.2,58.2 230.6,58.2C232,58.2 233.2,58.6 234,59.4C234.8,60.2 235.3,61.2 235.3,62.5C235.3,63.8 234.9,64.8 234,65.6C233.1,66.4 232,66.8 230.6,66.8C229.2,66.8 228.1,66.4 227.2,65.6C226.3,64.8 225.9,63.8 225.9,62.5ZM234.8,102L226.4,102L226.4,70.6L234.8,70.6L234.8,102Z" style="fill:rgb(79,78,80);fill-rule:nonzero;"/>
        <path d="M259.6,102C259.2,101.2 258.9,100.3 258.8,99.2C256.8,101.5 254.1,102.6 250.9,102.6C247.8,102.6 245.3,101.7 243.3,99.9C241.3,98.1 240.3,95.9 240.3,93.2C240.3,89.9 241.5,87.3 244,85.5C246.5,83.7 250,82.8 254.7,82.8L258.6,82.8L258.6,81C258.6,79.5 258.2,78.4 257.5,77.5C256.8,76.6 255.6,76.2 254,76.2C252.6,76.2 251.5,76.5 250.7,77.2C249.9,77.9 249.5,78.8 249.5,80L241.1,80C241.1,78.2 241.7,76.5 242.8,75C243.9,73.5 245.5,72.2 247.6,71.4C249.6,70.5 251.9,70.1 254.5,70.1C258.4,70.1 261.4,71.1 263.7,73C266,74.9 267.1,77.7 267.1,81.2L267.1,94.8C267.1,97.8 267.5,100 268.3,101.6L268.3,102.1L259.6,102.1L259.6,102ZM252.6,96.2C253.8,96.2 255,95.9 256,95.4C257,94.8 257.8,94.1 258.3,93.2L258.3,87.8L255.2,87.8C251,87.8 248.8,89.3 248.5,92.2L248.5,92.7C248.5,93.7 248.9,94.6 249.6,95.3C250.3,95.8 251.3,96.2 252.6,96.2Z" style="fill:rgb(79,78,80);fill-rule:nonzero;"/>
        <path d="M279.5,99L300.4,99L300.4,102L276,102L276,59.8L279.6,59.8L279.6,99L279.5,99Z" style="fill:rgb(79,78,80);fill-rule:nonzero;"/>
        <path d="M323.2,102C322.9,101 322.6,99.6 322.5,97.6C321.3,99.2 319.7,100.4 317.8,101.3C315.9,102.2 313.9,102.6 311.8,102.6C308.8,102.6 306.3,101.8 304.5,100.1C302.6,98.4 301.7,96.3 301.7,93.7C301.7,90.6 303,88.2 305.5,86.4C308,84.6 311.6,83.7 316.1,83.7L322.4,83.7L322.4,80.1C322.4,77.9 321.7,76.1 320.3,74.8C318.9,73.5 316.9,72.9 314.3,72.9C311.9,72.9 309.9,73.5 308.3,74.8C306.7,76 305.9,77.5 305.9,79.3L302.4,79.3C302.4,76.8 303.6,74.6 305.9,72.8C308.2,71 311.1,70.1 314.5,70.1C318,70.1 320.8,71 322.8,72.7C324.8,74.4 325.9,76.9 325.9,80L325.9,94.8C325.9,97.8 326.2,100.1 326.9,101.6L326.9,101.9L323.2,101.9L323.2,102ZM312.3,99.5C314.6,99.5 316.7,98.9 318.5,97.8C320.3,96.7 321.7,95.2 322.5,93.3L322.5,86.4L316.3,86.4C312.8,86.4 310.1,87.1 308.2,88.3C306.2,89.5 305.3,91.2 305.3,93.4C305.3,95.2 306,96.6 307.3,97.8C308.6,98.9 310.3,99.5 312.3,99.5Z" style="fill:rgb(79,78,80);fill-rule:nonzero;"/>
        <path d="M359,86.6C359,91.5 357.9,95.4 355.8,98.2C353.6,101.1 350.7,102.5 347.1,102.5C342.7,102.5 339.4,100.9 337.2,97.6L337,102L333.8,102L333.8,57.4L337.3,57.4L337.3,75.1C339.5,71.7 342.8,70 347.1,70C350.8,70 353.7,71.4 355.9,74.2C358.1,77 359.1,81 359.1,86L359.1,86.6L359,86.6ZM355.6,86C355.6,81.9 354.8,78.7 353.2,76.4C351.6,74.1 349.3,73 346.4,73C344.2,73 342.3,73.5 340.7,74.6C339.2,75.7 338,77.3 337.2,79.4L337.2,93.6C338.9,97.5 342,99.5 346.4,99.5C349.3,99.5 351.5,98.4 353.1,96.1C354.7,93.9 355.6,90.5 355.6,86Z" style="fill:rgb(79,78,80);fill-rule:nonzero;"/>
        <path d="M384,94C384,92.3 383.3,90.9 381.9,89.9C380.5,88.9 378.4,88 375.6,87.4C372.8,86.8 370.7,86.1 369.1,85.4C367.5,84.7 366.4,83.7 365.7,82.6C365,81.5 364.6,80.2 364.6,78.6C364.6,76.1 365.6,74.1 367.7,72.5C369.8,70.9 372.4,70.1 375.6,70.1C379.1,70.1 381.9,71 384,72.7C386.1,74.4 387.2,76.7 387.2,79.5L383.7,79.5C383.7,77.7 382.9,76.1 381.4,74.9C379.9,73.7 377.9,73.1 375.6,73.1C373.3,73.1 371.5,73.6 370.1,74.6C368.7,75.6 368,76.9 368,78.6C368,80.2 368.6,81.4 369.7,82.2C370.8,83 372.9,83.8 376,84.6C379,85.3 381.3,86.1 382.8,86.9C384.3,87.7 385.4,88.7 386.2,89.8C386.9,90.9 387.3,92.3 387.3,93.9C387.3,96.5 386.2,98.7 384.1,100.3C382,101.9 379.2,102.7 375.7,102.7C372,102.7 369.1,101.8 366.8,100C364.5,98.2 363.4,96 363.4,93.3L366.9,93.3C367,95.3 367.9,96.9 369.5,98C371.1,99.1 373.2,99.7 375.7,99.7C378.1,99.7 380.1,99.2 381.6,98.1C383.1,97 384,95.6 384,94Z" style="fill:rgb(79,78,80);fill-rule:nonzero;"/>
    </g>
    <g id="for-data-collectives" serif:id="for data collectives (text)">
        <path d="M103.6,137.1L103.6,119.3L100.4,119.3L100.4,117.5L103.6,117.5L103.6,115.1C103.6,113.1 104.1,111.6 105.1,110.5C106.1,109.4 107.5,108.9 109.4,108.9C110.2,108.9 111,109 111.7,109.2L111.5,111C110.9,110.9 110.2,110.8 109.5,110.8C108.3,110.8 107.4,111.2 106.7,111.9C106,112.6 105.7,113.7 105.7,115.1L105.7,117.5L110.4,117.5L110.4,119.3L105.7,119.3L105.7,137.1L103.6,137.1Z" style="fill:rgb(79,78,80);fill-rule:nonzero;"/>
        <path d="M112.2,127C112.2,125.1 112.6,123.4 113.3,121.9C114,120.4 115.1,119.2 116.4,118.4C117.7,117.6 119.3,117.1 120.9,117.1C123.5,117.1 125.6,118 127.2,119.8C128.8,121.6 129.6,124.1 129.6,127.1L129.6,127.6C129.6,129.5 129.2,131.2 128.5,132.7C127.8,134.2 126.7,135.4 125.4,136.2C124.1,137 122.6,137.4 120.8,137.4C118.2,137.4 116.1,136.5 114.5,134.7C112.9,132.9 112.1,130.4 112.1,127.4L112.1,127L112.2,127ZM114.4,127.6C114.4,129.9 115,131.9 116.2,133.4C117.4,134.9 119,135.7 121,135.7C123,135.7 124.5,134.9 125.8,133.4C127,131.9 127.6,129.9 127.6,127.4L127.6,127C127.6,125.5 127.3,124.1 126.8,122.9C126.2,121.7 125.5,120.7 124.5,120C123.5,119.3 122.3,119 121.1,119C119.2,119 117.6,119.8 116.4,121.3C115.2,122.8 114.6,124.8 114.6,127.3L114.6,127.6L114.4,127.6Z" style="fill:rgb(79,78,80);fill-rule:nonzero;"/>
        <path d="M142.3,119.3C141.8,119.2 141.4,119.2 140.8,119.2C139.4,119.2 138.3,119.6 137.4,120.3C136.5,121.1 135.8,122.2 135.4,123.6L135.4,137.1L133.2,137.1L133.2,117.5L135.3,117.5L135.3,120.6C136.4,118.3 138.3,117.1 140.8,117.1C141.4,117.1 141.9,117.2 142.2,117.3L142.3,119.3Z" style="fill:rgb(79,78,80);fill-rule:nonzero;"/>
        <path d="M152.1,127.1C152.1,124.1 152.8,121.6 154.1,119.8C155.4,118 157.3,117.1 159.6,117.1C162.2,117.1 164.3,118.1 165.7,120.2L165.7,109.2L167.9,109.2L167.9,137.1L165.9,137.1L165.8,134.5C164.4,136.5 162.4,137.5 159.7,137.5C157.4,137.5 155.6,136.6 154.2,134.8C152.8,133 152.1,130.5 152.1,127.4L152.1,127.1ZM154.3,127.5C154.3,130 154.8,132 155.8,133.4C156.8,134.8 158.2,135.6 160,135.6C162.7,135.6 164.6,134.4 165.7,132.1L165.7,122.9C164.6,120.3 162.7,119.1 160,119.1C158.2,119.1 156.8,119.8 155.7,121.2C154.6,122.6 154.3,124.7 154.3,127.5Z" style="fill:rgb(79,78,80);fill-rule:nonzero;"/>
        <path d="M185,137.1C184.8,136.5 184.6,135.6 184.6,134.4C183.8,135.4 182.9,136.2 181.7,136.7C180.5,137.2 179.3,137.5 178,137.5C176.1,137.5 174.6,137 173.4,135.9C172.2,134.8 171.6,133.5 171.6,131.9C171.6,130 172.4,128.5 174,127.4C175.6,126.3 177.8,125.7 180.6,125.7L184.5,125.7L184.5,123.5C184.5,122.1 184.1,121 183.2,120.2C182.3,119.4 181.1,119 179.4,119C177.9,119 176.6,119.4 175.6,120.2C174.6,121 174.1,121.9 174.1,123L171.9,123C171.9,121.4 172.6,120.1 174.1,118.9C175.6,117.8 177.3,117.2 179.5,117.2C181.7,117.2 183.4,117.7 184.7,118.8C186,119.9 186.6,121.4 186.6,123.4L186.6,132.7C186.6,134.6 186.8,136 187.2,137L187.2,137.2L185,137.2L185,137.1ZM178.2,135.6C179.7,135.6 180.9,135.2 182.1,134.5C183.3,133.8 184.1,132.9 184.6,131.7L184.6,127.4L180.7,127.4C178.5,127.4 176.8,127.8 175.6,128.6C174.4,129.4 173.8,130.4 173.8,131.8C173.8,132.9 174.2,133.8 175,134.5C175.9,135.2 176.9,135.6 178.2,135.6Z" style="fill:rgb(79,78,80);fill-rule:nonzero;"/>
        <path d="M195,112.5L195,117.5L199.1,117.5L199.1,119.3L195,119.3L195,132.4C195,133.5 195.2,134.3 195.6,134.8C196,135.3 196.6,135.6 197.6,135.6C198,135.6 198.5,135.5 199.4,135.4L199.5,137.2C198.9,137.4 198.2,137.5 197.2,137.5C195.7,137.5 194.6,137.1 194,136.2C193.4,135.3 193,134.1 193,132.4L193,119.3L189.4,119.3L189.4,117.5L193,117.5L193,112.5L195,112.5Z" style="fill:rgb(79,78,80);fill-rule:nonzero;"/>
        <path d="M215,137.1C214.8,136.5 214.6,135.6 214.6,134.4C213.8,135.4 212.9,136.2 211.7,136.7C210.5,137.2 209.3,137.5 208,137.5C206.1,137.5 204.6,137 203.4,135.9C202.2,134.8 201.6,133.5 201.6,131.9C201.6,130 202.4,128.5 204,127.4C205.6,126.3 207.8,125.7 210.6,125.7L214.5,125.7L214.5,123.5C214.5,122.1 214.1,121 213.2,120.2C212.3,119.4 211.1,119 209.4,119C207.9,119 206.6,119.4 205.6,120.2C204.6,121 204.1,121.9 204.1,123L201.9,123C201.9,121.4 202.6,120.1 204.1,118.9C205.6,117.8 207.3,117.2 209.4,117.2C211.6,117.2 213.3,117.7 214.6,118.8C215.9,119.9 216.5,121.4 216.6,123.4L216.6,132.7C216.6,134.6 216.8,136 217.2,137L217.2,137.2L215,137.2L215,137.1ZM208.2,135.6C209.7,135.6 210.9,135.2 212.1,134.5C213.3,133.8 214.1,132.9 214.6,131.7L214.6,127.4L210.7,127.4C208.5,127.4 206.8,127.8 205.6,128.6C204.4,129.4 203.8,130.4 203.8,131.8C203.8,132.9 204.2,133.8 205,134.5C205.8,135.2 206.9,135.6 208.2,135.6Z" style="fill:rgb(79,78,80);fill-rule:nonzero;"/>
        <path d="M237,135.7C238.5,135.7 239.8,135.3 240.8,134.4C241.8,133.5 242.4,132.4 242.5,131.1L244.6,131.1C244.5,132.3 244.2,133.4 243.5,134.4C242.8,135.4 241.9,136.2 240.8,136.7C239.7,137.3 238.4,137.5 237.1,137.5C234.5,137.5 232.5,136.6 231,134.8C229.5,133 228.7,130.6 228.7,127.6L228.7,126.9C228.7,125 229,123.3 229.7,121.8C230.4,120.3 231.3,119.2 232.6,118.4C233.9,117.6 235.3,117.2 237,117.2C239.2,117.2 240.9,117.8 242.3,119.1C243.7,120.4 244.4,122.1 244.5,124.2L242.4,124.2C242.3,122.7 241.7,121.4 240.7,120.5C239.7,119.6 238.4,119.1 236.9,119.1C234.9,119.1 233.4,119.8 232.3,121.2C231.2,122.6 230.7,124.6 230.7,127.1L230.7,127.7C230.7,130.2 231.2,132.2 232.3,133.6C233.4,135 235,135.7 237,135.7Z" style="fill:rgb(79,78,80);fill-rule:nonzero;"/>
        <path d="M246.7,127C246.7,125.1 247.1,123.4 247.8,121.9C248.5,120.4 249.6,119.2 250.9,118.4C252.2,117.6 253.7,117.1 255.4,117.1C258,117.1 260.1,118 261.7,119.8C263.3,121.6 264.1,124.1 264.1,127.1L264.1,127.6C264.1,129.5 263.7,131.2 263,132.7C262.3,134.2 261.2,135.4 259.9,136.2C258.6,137 257.1,137.4 255.3,137.4C252.7,137.4 250.6,136.5 249,134.7C247.4,132.9 246.6,130.4 246.6,127.4L246.6,127L246.7,127ZM248.9,127.6C248.9,129.9 249.5,131.9 250.7,133.4C251.9,134.9 253.5,135.7 255.5,135.7C257.5,135.7 259,134.9 260.3,133.4C261.5,131.9 262.1,129.9 262.1,127.4L262.1,127C262.1,125.5 261.8,124.1 261.3,122.9C260.7,121.7 260,120.7 259,120C258,119.3 256.8,119 255.6,119C253.7,119 252.1,119.8 250.9,121.3C249.7,122.8 249.1,124.8 249.1,127.3L249.1,127.6L248.9,127.6Z" style="fill:rgb(79,78,80);fill-rule:nonzero;"/>
        <rect x="268" y="109.2" width="2.2" height="27.9" style="fill:rgb(79,78,80);"/>
        <rect x="275.4" y="109.2" width="2.2" height="27.9" style="fill:rgb(79,78,80);"/>
        <path d="M290.2,137.5C288.5,137.5 287,137.1 285.7,136.3C284.4,135.5 283.3,134.3 282.6,132.9C281.8,131.4 281.5,129.8 281.5,128L281.5,127.2C281.5,125.3 281.9,123.6 282.6,122.1C283.3,120.6 284.4,119.4 285.7,118.5C287,117.6 288.4,117.2 289.9,117.2C292.3,117.2 294.2,118 295.6,119.6C297,121.2 297.7,123.4 297.7,126.3L297.7,127.5L283.7,127.5L283.7,127.9C283.7,130.1 284.3,132 285.6,133.5C286.9,135 288.5,135.7 290.4,135.7C291.6,135.7 292.6,135.5 293.5,135.1C294.4,134.7 295.2,134 295.9,133.1L297.3,134.1C295.5,136.3 293.2,137.5 290.2,137.5ZM289.8,119C288.2,119 286.8,119.6 285.7,120.8C284.6,122 283.9,123.6 283.7,125.6L295.5,125.6L295.5,125.4C295.4,123.5 294.9,122 293.9,120.8C292.9,119.6 291.4,119 289.8,119Z" style="fill:rgb(79,78,80);fill-rule:nonzero;"/>
        <path d="M308.1,135.7C309.6,135.7 310.9,135.3 311.9,134.4C312.9,133.5 313.5,132.4 313.6,131.1L315.7,131.1C315.6,132.3 315.3,133.4 314.6,134.4C313.9,135.4 313,136.2 311.9,136.7C310.8,137.3 309.5,137.5 308.2,137.5C305.6,137.5 303.6,136.6 302.1,134.8C300.6,133 299.8,130.6 299.8,127.6L299.8,126.9C299.8,125 300.1,123.3 300.8,121.8C301.5,120.3 302.4,119.2 303.7,118.4C305,117.6 306.4,117.2 308.1,117.2C310.3,117.2 312,117.8 313.4,119.1C314.8,120.4 315.5,122.1 315.6,124.2L313.5,124.2C313.4,122.7 312.8,121.4 311.8,120.5C310.8,119.6 309.5,119.1 308,119.1C306,119.1 304.5,119.8 303.4,121.2C302.3,122.6 301.8,124.6 301.8,127.1L301.8,127.7C301.8,130.2 302.3,132.2 303.4,133.6C304.5,135 306.1,135.7 308.1,135.7Z" style="fill:rgb(79,78,80);fill-rule:nonzero;"/>
        <path d="M322.4,112.5L322.4,117.5L326.5,117.5L326.5,119.3L322.4,119.3L322.4,132.4C322.4,133.5 322.6,134.3 323,134.8C323.4,135.3 324,135.6 325,135.6C325.4,135.6 325.9,135.5 326.8,135.4L326.9,137.2C326.3,137.4 325.6,137.5 324.6,137.5C323.1,137.5 322,137.1 321.4,136.2C320.7,135.3 320.4,134.1 320.4,132.4L320.4,119.3L316.8,119.3L316.8,117.5L320.4,117.5L320.4,112.5L322.4,112.5Z" style="fill:rgb(79,78,80);fill-rule:nonzero;"/>
        <path d="M329.9,111.8C329.9,111.4 330,111 330.3,110.8C330.6,110.5 330.9,110.4 331.4,110.4C331.9,110.4 332.2,110.5 332.5,110.8C332.8,111.1 332.9,111.4 332.9,111.8C332.9,112.2 332.8,112.6 332.5,112.8C332.2,113.1 331.9,113.2 331.4,113.2C330.9,113.2 330.6,113.1 330.3,112.8C330,112.6 329.9,112.2 329.9,111.8ZM332.5,137.1L330.3,137.1L330.3,117.5L332.5,117.5L332.5,137.1Z" style="fill:rgb(79,78,80);fill-rule:nonzero;"/>
        <path d="M343.5,134.1L349.5,117.5L351.7,117.5L344.4,137.1L342.6,137.1L335.2,117.5L337.4,117.5L343.5,134.1Z" style="fill:rgb(79,78,80);fill-rule:nonzero;"/>
        <path d="M361.7,137.5C360,137.5 358.5,137.1 357.2,136.3C355.9,135.5 354.8,134.3 354.1,132.9C353.3,131.4 353,129.8 353,128L353,127.2C353,125.3 353.4,123.6 354.1,122.1C354.8,120.6 355.9,119.4 357.2,118.5C358.5,117.6 359.9,117.2 361.4,117.2C363.8,117.2 365.7,118 367.1,119.6C368.5,121.2 369.2,123.4 369.2,126.3L369.2,127.5L355.2,127.5L355.2,127.9C355.2,130.1 355.8,132 357.1,133.5C358.4,135 360,135.7 361.9,135.7C363.1,135.7 364.1,135.5 365,135.1C365.9,134.7 366.7,134 367.4,133.1L368.8,134.1C367.1,136.3 364.8,137.5 361.7,137.5ZM361.3,119C359.7,119 358.3,119.6 357.2,120.8C356.1,122 355.4,123.6 355.2,125.6L367,125.6L367,125.4C366.9,123.5 366.4,122 365.4,120.8C364.4,119.6 363,119 361.3,119Z" style="fill:rgb(79,78,80);fill-rule:nonzero;"/>
        <path d="M384.1,132.1C384.1,131 383.7,130.2 382.8,129.5C381.9,128.8 380.6,128.3 378.9,128C377.2,127.6 375.8,127.2 374.8,126.7C373.8,126.2 373.1,125.6 372.7,124.9C372.2,124.2 372,123.4 372,122.4C372,120.9 372.6,119.6 373.9,118.6C375.2,117.6 376.9,117.1 378.9,117.1C381.1,117.1 382.8,117.6 384.2,118.7C385.6,119.8 386.2,121.2 386.2,122.9L384,122.9C384,121.8 383.5,120.8 382.6,120C381.6,119.2 380.4,118.9 379,118.9C377.6,118.9 376.4,119.2 375.6,119.9C374.7,120.5 374.3,121.4 374.3,122.4C374.3,123.4 374.7,124.1 375.4,124.7C376.1,125.2 377.4,125.7 379.3,126.2C381.2,126.7 382.6,127.1 383.6,127.6C384.6,128.1 385.3,128.7 385.7,129.4C386.2,130.1 386.4,131 386.4,132C386.4,133.7 385.7,135 384.4,136C383.1,137 381.3,137.5 379.2,137.5C376.9,137.5 375.1,136.9 373.6,135.8C372.2,134.7 371.5,133.3 371.5,131.6L373.7,131.6C373.8,132.9 374.3,133.9 375.3,134.6C376.3,135.3 377.6,135.7 379.2,135.7C380.7,135.7 381.9,135.4 382.9,134.7C383.7,134 384.1,133.1 384.1,132.1Z" style="fill:rgb(79,78,80);fill-rule:nonzero;"/>
    </g>
</svg>